<?xml version="1.0" encoding="UTF-8"?>
<svg id="Layer_1" xmlns="http://www.w3.org/2000/svg" version="1.1" viewBox="0 0 400 400">
  <!-- Generator: Adobe Illustrator 29.7.1, SVG Export Plug-In . SVG Version: 2.1.1 Build 8)  -->
  <defs>
    <style>
      .st0 {
        fill: #dadfe2;
      }

      .st1 {
        fill: #002657;
      }

      .st2 {
        fill: #00a4b1;
      }
    </style>
  </defs>
  <rect class="st1" width="400" height="400"/>
  <g>
    <path class="st2" d="M216.3347,248.6378l-.0078-.0159-13.2839,7.6696c-1.8826,1.0869-4.2021,1.0869-6.0847,0l-44.1865-25.511c-1.8826-1.0869-3.0424-3.0958-3.0424-5.2696v-51.0217c0-2.1738,1.1597-4.1823,3.0424-5.2692l19.2299-11.1027-.0164-.0327,99.2405-57.2972-68.1833-39.3658c-1.8826-1.0869-4.2021-1.0869-6.0847,0l-115.4491,66.6548c-1.8826,1.0869-3.0424,3.0958-3.0424,5.2696v133.3086c0,2.1738,1.1597,4.1827,3.0424,5.2696l115.4491,66.6543c1.8826,1.0869,4.2021,1.0869,6.0847,0l115.4487-66.6543c1.8826-1.0869,3.0424-3.0958,3.0424-5.2696v-78.7535l-105.199,60.7372v-.0004Z"/>
    <g>
      <path class="st0" d="M321.5336,140.8717v-7.5262c0-2.1738-1.1593-4.1827-3.0419-5.2696l-6.5849-3.8014-71.2075,41.1752,6.5297,3.77c1.8826,1.0865,3.0424,3.0958,3.0424,5.2696v7.5895l71.2622-41.207Z"/>
      <polygon class="st0" points="281.9688 106.9896 210.7979 148.1437 228.0151 158.0845 227.9987 158.1173 229.9408 159.2382 301.1487 118.0631 281.9688 106.9896"/>
      <polygon class="st0" points="321.5336 175.4675 321.5336 153.3039 250.271 194.5109 250.271 216.6746 321.5336 175.4675"/>
    </g>
  </g>
</svg>