<?xml version="1.0" encoding="UTF-8"?>
<svg id="Layer_1" xmlns="http://www.w3.org/2000/svg" version="1.1" viewBox="0 0 283.4646 73.1792">
  <!-- Generator: Adobe Illustrator 29.7.1, SVG Export Plug-In . SVG Version: 2.1.1 Build 8)  -->
  <defs>
    <style>
      .st0 {
        fill: #dadfe2;
      }

      .st1 {
        fill: #00a4b1;
      }
    </style>
  </defs>
  <path class="st0" d="M165.7565,28.3356c-2.694,0-4.908.8272-6.6378,2.4806-.6474.619-1.2014,1.3304-1.6624,2.1338-.383-.8184-.8887-1.5554-1.5299-2.2026-1.5911-1.6077-3.6905-2.4118-6.2922-2.4118-2.6037,0-4.7473.8498-6.4308,2.5495-.3517.3549-.6688.7465-.9643,1.1608v-3.1588h-4.6855v23.427h4.6855v-13.7346c0-1.7147.5354-3.0928,1.6077-4.1346,1.0703-1.0407,2.4947-1.5615,4.2706-1.5615,1.6535,0,2.9934.5133,4.02,1.5389,1.0266,1.0261,1.5389,2.3812,1.5389,4.0652v13.8265h4.6388v-13.7346c0-1.7147.5445-3.0928,1.6313-4.1346,1.0869-1.0407,2.5193-1.5615,4.2952-1.5615,1.6535,0,2.9854.5133,3.9959,1.5389,1.0105,1.0261,1.5168,2.3812,1.5168,4.0652v13.8265h4.685v-15.159c0-2.6639-.7976-4.8-2.3887-6.4077-1.5932-1.6077-3.6905-2.4118-6.2942-2.4118v.0002ZM131.1222,28.8871h-18.1443v4.4555h13.4589v3.8588h-6.5228c-1.5926,0-3.0396.3375-4.3409,1.0105-1.3019.674-2.3275,1.6077-3.0778,2.8021-.7504,1.1944-1.1251,2.5264-1.1251,3.9964s.3747,2.8021,1.1251,3.9964c.7503,1.1944,1.7759,2.136,3.0778,2.8252,1.3013.6891,2.7483,1.0336,4.3409,1.0336s3.0391-.3375,4.341-1.011c1.1127-.5755,1.9995-1.3541,2.687-2.3109v2.7705h7.1205v-4.2721h-2.9402v-19.1549h-.0001ZM126.4367,44.5971c0,.8267-.2451,1.5464-.7348,2.1587-.4902.6132-1.1873,1.0874-2.0898,1.4244-.9041.337-1.9372.5052-3.1009.5052-.7966,0-1.5318-.1607-2.2049-.4826-.674-.3215-1.1944-.7649-1.562-1.332-.3672-.566-.551-1.1863-.551-1.8603,0-.6731.1838-1.2863.551-1.8372.3676-.5515.888-.9879,1.562-1.3094.6731-.3214,1.4083-.4821,2.2049-.4821h5.9256v3.2154h0ZM86.3127,26.3834c1.7604-1.0256,3.7277-1.5389,5.9025-1.5389,1.684,0,3.2616.3219,4.7317.9648,1.4696.6434,2.7333,1.5389,3.7895,2.687,1.0567,1.1487,1.8448,2.4886,2.3656,4.0195h5.2827c-.5821-2.4188-1.6383-4.5705-3.1697-6.4539-1.5313-1.8835-3.4148-3.3531-5.6498-4.4098-2.236-1.0567-4.6855-1.5846-7.3499-1.5846-3.1235,0-5.9482.7198-8.475,2.1587-2.5264,1.44-4.5243,3.4073-5.9944,5.9029-1.4701,2.4962-2.2049,5.2751-2.2049,8.3374s.7348,5.8417,2.2049,8.3369c1.4701,2.4967,3.468,4.464,5.9944,5.9029,2.5268,1.44,5.3515,2.1592,8.475,2.1592,2.6644,0,5.1139-.5284,7.3499-1.5851,2.235-1.0562,4.1185-2.5264,5.6498-4.4098,1.5314-1.8834,2.5876-4.0346,3.1697-6.4539h-5.2827c-.5209,1.5319-1.3089,2.8709-2.3656,4.0195-1.0562,1.1482-2.3199,2.0442-3.7895,2.687-1.4701.6434-3.0477.9648-4.7317.9648-2.1748,0-4.1421-.5128-5.9025-1.5389-1.7614-1.0256-3.1395-2.4188-4.134-4.1802-.9955-1.7604-1.4932-3.7277-1.4932-5.9025s.4977-4.1415,1.4932-5.9029c.9945-1.7604,2.3726-3.1537,4.134-4.1803v.0002ZM254.9634,18.5975c-.8578,0-1.5781.2913-2.1597.8729-.5816.5821-.8729,1.3018-.8729,2.1587,0,.8578.2913,1.5776.8729,2.1592.5816.5821,1.3019.8729,2.1597.8729.8568,0,1.5761-.2908,2.1587-.8729.5816-.5816.8729-1.3014.8729-2.1592,0-.8569-.2913-1.5766-.8729-2.1587-.5826-.5816-1.3019-.8729-2.1587-.8729ZM252.6199,52.3141h4.6861v-23.427h-4.6861v23.427ZM196.649,29.9433c-1.9146-1.0713-4.0502-1.6077-6.4077-1.6077-2.3274,0-4.4489.5364-6.3625,1.6077-1.9136,1.0723-3.4153,2.5424-4.5012,4.4098-1.0879,1.8684-1.6313,3.9507-1.6313,6.2475s.5434,4.3797,1.6313,6.247c1.0858,1.8684,2.5875,3.3385,4.5012,4.4098,1.9135,1.0718,4.0351,1.6082,6.3625,1.6082,2.8779,0,5.3892-.7273,7.5328-2.1823,2.1436-1.454,3.6594-3.3762,4.5484-5.7649h-5.145c-.5826,1.1336-1.4856,2.0291-2.7102,2.6871-1.2255.6589-2.6187.9879-4.1807.9879-1.4394,0-2.7483-.3446-3.9266-1.0336-1.1793-.6891-2.1064-1.6459-2.7795-2.8709-.3722-.6761-.631-1.3987-.7975-2.1591h19.861c.0914-.5204.1376-1.1632.1376-1.9292,0-2.2968-.5445-4.3792-1.6313-6.2475-1.0869-1.8673-2.5876-3.3375-4.5012-4.4098h-.0001ZM182.8405,38.3957c.1683-.6598.4125-1.2886.7398-1.8834.6731-1.2245,1.5921-2.1818,2.7564-2.8709,1.1632-.6891,2.4801-1.0336,3.9497-1.0336,1.4083,0,2.6951.3295,3.8593.9874,1.1632.6589,2.0823,1.5701,2.7554,2.7333.3737.6455.6382,1.3374.8142,2.0673h-14.8748ZM276.7361,41.0602c-1.1944-1.133-2.8488-1.9754-4.9613-2.5268-1.3781-.3672-2.443-.8338-3.1923-1.4008-.7514-.5666-1.1261-1.2632-1.1261-2.0904,0-.7041.2913-1.3013.8729-1.7915.5816-.4892,1.2707-.7348,2.0673-.7348.888,0,1.6072.2838,2.1586.8498.5515.5671.8267,1.2481.8267,2.0442h4.8236c0-1.3164-.3294-2.5107-.9874-3.5831-.6589-1.0713-1.5851-1.9211-2.7794-2.5494-1.1944-.6273-2.5264-.9417-3.9959-.9417-1.4405,0-2.7494.2757-3.9276.8272-1.1792.551-2.1215,1.3626-2.8257,2.4344-.7041,1.0724-1.0557,2.2968-1.0557,3.675,0,2.0517.6268,3.6288,1.8834,4.7312,1.2547,1.1024,2.9091,1.9292,4.9603,2.4806,1.3782.337,2.4188.7885,3.124,1.3551.7041.5671,1.0567,1.2787,1.0567,2.1361,0,.7654-.2994,1.4088-.8961,1.9291-.5967.5209-1.34.781-2.228.781-.9492,0-1.7528-.3139-2.4118-.9417-.6589-.6273-.9874-1.3852-.9874-2.2737h-4.8226c0,1.3476.3596,2.5881,1.0789,3.7207.7192,1.133,1.6916,2.0291,2.9171,2.687,1.2245.6584,2.6187.9879,4.1798.9879,1.5008,0,2.8709-.2989,4.1115-.8961s2.2048-1.447,2.894-2.5494c.6891-1.1025,1.0336-2.3726,1.0336-3.8126,0-1.8985-.5967-3.4143-1.791-4.5474h-.0001ZM224.2548,29.4843c-1.4234-.7654-3.0547-1.1487-4.892-1.1487-1.8684,0-3.5298.3983-4.9834,1.1944-1.2375.6777-2.2628,1.6249-3.1009,2.8107v-3.4535h-4.686v23.427h4.686v-13.0455c0-1.2862.2672-2.4118.8036-3.3766.5354-.9643,1.3009-1.7067,2.2973-2.2275.9945-.5204,2.1507-.781,3.4676-.781,1.8673,0,3.3681.5741,4.5022,1.7227,1.1321,1.1482,1.6996,2.672,1.6996,4.5705v13.1374h4.685v-14.6532c0-1.8377-.3908-3.4685-1.1713-4.8924-.7815-1.4239-1.8834-2.5183-3.3078-3.2842h0ZM240.6312,21.9967h-4.685v6.8904h-4.456v4.2721h4.456v19.1549h10.9783v-4.2721h-6.2932v-14.8827h6.2932v-4.2721h-6.2932v-6.8904h-.0001Z"/>
  <path class="st1" d="M36.8106,47.2681l-.0018-.0037-3.0835,1.7803c-.437.2523-.9754.2523-1.4124,0l-10.2567-5.9217c-.437-.2523-.7062-.7186-.7062-1.2232v-11.8433c0-.5046.2692-.9708.7062-1.2231l4.4637-2.5772-.0038-.0076,23.036-13.3-15.8269-9.1377c-.437-.2523-.9754-.2523-1.4124,0L5.5144,19.283c-.437.2523-.7062.7186-.7062,1.2232v30.944c0,.5046.2692.9709.7062,1.2232l26.7984,15.472c.437.2523.9754.2523,1.4124,0l26.7983-15.472c.437-.2523.7062-.7186.7062-1.2232v-18.2805l-24.4191,14.0985h0Z"/>
  <g>
    <path class="st0" d="M61.2297,22.2531v-1.747c0-.5046-.2691-.9709-.7061-1.2232l-1.5285-.8824-16.5289,9.5577,1.5157.8751c.437.2522.7062.7186.7062,1.2232v1.7617s16.5416-9.5651,16.5416-9.5651Z"/>
    <polygon class="st0" points="52.0458 14.3883 35.5254 23.9411 39.5219 26.2486 39.5181 26.2562 39.9689 26.5164 56.4979 16.9587 52.0458 14.3883"/>
    <polygon class="st0" points="61.2297 30.2836 61.2297 25.1389 44.688 34.704 44.688 39.8487 61.2297 30.2836"/>
  </g>
</svg>