<?xml version="1.0" encoding="UTF-8"?>
<svg version="1.1" xmlns="http://www.w3.org/2000/svg" width="1589" height="583">
<path d="M0 0 C1.4453992 -0.00571728 2.89079389 -0.01268673 4.33618164 -0.02079773 C8.22691623 -0.03859702 12.11742366 -0.03758566 16.00818658 -0.03185534 C19.2731123 -0.02874339 22.53799563 -0.03487824 25.80291528 -0.04089409 C33.51496836 -0.05489505 41.22691057 -0.05341584 48.93896484 -0.04199219 C56.85634767 -0.03052247 64.77339129 -0.04457739 72.69072944 -0.07138866 C79.52344508 -0.09364815 86.35605505 -0.1001599 93.18880433 -0.09431225 C97.25416488 -0.09096497 101.31930828 -0.09320704 105.38463783 -0.11056328 C109.212293 -0.12619446 113.03945163 -0.12190104 116.86708832 -0.10325813 C118.2588842 -0.09961606 119.65071823 -0.10254998 121.04247856 -0.11314392 C138.10221136 -0.23292392 152.33203888 3.89240506 165.19799805 15.40405273 C168.32644619 13.96723153 170.85018933 12.18709323 173.57299805 10.09155273 C182.51103388 3.73000866 193.37436298 0.30069562 204.31698608 0.25688171 C205.54747681 0.24972641 206.77796753 0.24257111 208.04574585 0.23519897 C209.40167211 0.232359 210.75759864 0.22964724 212.11352539 0.22705078 C213.54803632 0.22078086 214.98254565 0.2141336 216.41705322 0.20713806 C221.12266927 0.18614556 225.82828544 0.17573527 230.53393555 0.16577148 C232.15970501 0.16172113 233.78547431 0.15760413 235.41124344 0.1534214 C243.05668333 0.13437465 250.70211364 0.12014656 258.34757268 0.11180943 C267.1406454 0.10206021 275.93346483 0.07579937 284.72644842 0.03530854 C291.54201594 0.00501348 298.35751146 -0.00967233 305.17314494 -0.01297158 C309.23417013 -0.01530822 313.29492464 -0.02408489 317.35587692 -0.04943275 C321.18586011 -0.07295209 325.01539902 -0.07685262 328.8454361 -0.06667137 C330.23885463 -0.06618152 331.63229683 -0.07233617 333.02564621 -0.08622742 C350.09695393 -0.24667446 364.3249817 3.88609074 377.19799805 15.40405273 C380.32644619 13.96723153 382.85018933 12.18709323 385.57299805 10.09155273 C394.51103388 3.73000866 405.37436298 0.30069562 416.31698608 0.25688171 C417.54747681 0.24972641 418.77796753 0.24257111 420.04574585 0.23519897 C421.40167211 0.232359 422.75759864 0.22964724 424.11352539 0.22705078 C425.54803632 0.22078086 426.98254565 0.2141336 428.41705322 0.20713806 C433.12266927 0.18614556 437.82828544 0.17573527 442.53393555 0.16577148 C444.15970501 0.16172113 445.78547431 0.15760413 447.41124344 0.1534214 C455.05668333 0.13437465 462.70211364 0.12014656 470.34757268 0.11180943 C479.1406454 0.10206021 487.93346483 0.07579937 496.72644842 0.03530854 C503.54201594 0.00501348 510.35751146 -0.00967233 517.17314494 -0.01297158 C521.23417013 -0.01530822 525.29492464 -0.02408489 529.35587692 -0.04943275 C533.18586011 -0.07295209 537.01539902 -0.07685262 540.8454361 -0.06667137 C542.23885463 -0.06618152 543.63229683 -0.07233617 545.02564621 -0.08622742 C563.20929335 -0.25712894 577.50842442 4.50437859 590.87768555 17.05639648 C603.83426378 30.16566166 607.50312916 44.06372831 607.48852539 62.05908203 C607.49451791 63.53669064 607.50132512 65.01429614 607.50888062 66.49189758 C607.5264769 70.48805395 607.53123337 74.48412455 607.53251219 78.48031592 C607.53393828 80.98306454 607.53821658 83.48579167 607.54350662 85.98853493 C607.56198777 94.73732501 607.57017988 103.48605433 607.56860352 112.23486328 C607.56740353 120.36122334 607.58848272 128.48731721 607.62009084 136.61360997 C607.64633728 143.61350448 607.65696728 150.61331252 607.6556927 157.6132558 C607.6551854 161.78370051 607.66073865 165.95390858 607.6820488 170.12430382 C607.70157227 174.05200994 607.70146067 177.97925715 607.68701553 181.90698051 C607.68494348 183.33832224 607.68953118 184.76969377 607.70173645 186.20098495 C607.83019035 202.32507251 603.43045541 217.48838967 592.2331543 229.49780273 C578.39212817 242.46214199 564.05952173 246.70960682 545.54296875 246.69458008 C544.06536014 246.7005726 542.58775464 246.7073798 541.1101532 246.7149353 C537.11399683 246.73253159 533.11792623 246.73728806 529.12173486 246.73856688 C526.61898624 246.73999297 524.11625911 246.74427127 521.61351585 246.74956131 C512.86472577 246.76804246 504.11599645 246.77623457 495.3671875 246.7746582 C487.24082744 246.77345821 479.11473357 246.79453741 470.98844081 246.82614553 C463.9885463 246.85239196 456.98873826 246.86302197 449.98879498 246.86174738 C445.81835027 246.86124009 441.6481422 246.86679334 437.47774696 246.88810349 C433.55004085 246.90762696 429.62279363 246.90751536 425.69507027 246.89307022 C424.26372854 246.89099817 422.83235701 246.89558587 421.40106583 246.90779114 C409.63550993 247.00152243 398.82042896 245.15948757 388.69799805 238.90405273 C387.75956055 238.33686523 386.82112305 237.76967773 385.85424805 237.18530273 C383.17605138 235.38933556 380.68312117 233.45698053 378.19799805 231.40405273 C377.53155273 231.92354492 376.86510742 232.44303711 376.1784668 232.97827148 C362.41715431 243.39067715 350.58884153 246.70841332 333.54296875 246.69458008 C332.06536014 246.7005726 330.58775464 246.7073798 329.1101532 246.7149353 C325.11399683 246.73253159 321.11792623 246.73728806 317.12173486 246.73856688 C314.61898624 246.73999297 312.11625911 246.74427127 309.61351585 246.74956131 C300.86472577 246.76804246 292.11599645 246.77623457 283.3671875 246.7746582 C275.24082744 246.77345821 267.11473357 246.79453741 258.98844081 246.82614553 C251.9885463 246.85239196 244.98873826 246.86302197 237.98879498 246.86174738 C233.81835027 246.86124009 229.6481422 246.86679334 225.47774696 246.88810349 C221.55004085 246.90762696 217.62279363 246.90751536 213.69507027 246.89307022 C212.26372854 246.89099817 210.83235701 246.89558587 209.40106583 246.90779114 C197.63550993 247.00152243 186.82042896 245.15948757 176.69799805 238.90405273 C175.75956055 238.33686523 174.82112305 237.76967773 173.85424805 237.18530273 C171.17605138 235.38933556 168.68312117 233.45698053 166.19799805 231.40405273 C165.53155273 231.92354492 164.86510742 232.44303711 164.1784668 232.97827148 C150.38130935 243.417799 138.53913701 246.70835357 121.45117188 246.69458008 C119.9637112 246.7005725 118.47625361 246.70737969 116.98880005 246.7149353 C112.96578515 246.73253255 108.94285544 246.7372881 104.91980577 246.73856688 C102.40030624 246.73999291 99.88082805 246.7442711 97.36133385 246.74956131 C88.55418916 246.76804275 79.74710484 246.77623453 70.93994141 246.7746582 C62.75905052 246.7734582 54.57842404 246.79453765 46.3976 246.82614553 C39.35099682 246.8523909 32.30447955 246.86302201 25.25782794 246.86174738 C21.05943819 246.86124006 16.8612835 246.866795 12.66294289 246.88810349 C8.70897291 246.90762514 4.75545881 246.90751655 0.80147171 246.89307022 C-0.63954531 246.89099795 -2.08059193 246.89558721 -3.52155876 246.90779114 C-20.71802492 247.04385486 -35.02683088 242.13448415 -47.61450195 230.21655273 C-57.6452335 219.66474423 -63.89138783 206.85136833 -63.94917297 192.20240784 C-63.95632828 190.95364365 -63.96348358 189.70487946 -63.97085571 188.41827393 C-63.97369568 187.04187037 -63.97640745 185.66546654 -63.97900391 184.2890625 C-63.98527362 182.83322489 -63.99192087 181.37738887 -63.99891663 179.92155457 C-64.01990897 175.1462006 -64.03031839 170.37084651 -64.0402832 165.59545898 C-64.04433335 163.94614076 -64.04845035 162.2968227 -64.05263329 160.64750481 C-64.07167883 152.89261006 -64.08590801 145.13772476 -64.09424525 137.38281113 C-64.1039985 128.460119 -64.13027045 119.53767621 -64.17074615 110.61507183 C-64.20102285 103.70100697 -64.21572525 96.78701307 -64.21902627 89.87288326 C-64.22136469 85.75208798 -64.23016541 81.63155922 -64.25548744 77.51083565 C-64.27897478 73.62586535 -64.28291973 69.74133312 -64.27272606 65.85630989 C-64.27223547 64.4415083 -64.2784127 63.02668361 -64.2922821 61.61194992 C-64.45902792 43.57278115 -59.38762842 29.77982955 -47.0871582 16.65795898 C-33.83695703 3.58895714 -18.17188584 -0.06574404 0 0 Z " fill="#FEA550" transform="translate(63.802001953125,70.595947265625)"/>
<path d="M0 0 C1.4453992 -0.00571728 2.89079389 -0.01268673 4.33618164 -0.02079773 C8.22691623 -0.03859702 12.11742366 -0.03758566 16.00818658 -0.03185534 C19.2731123 -0.02874339 22.53799563 -0.03487824 25.80291528 -0.04089409 C33.51496836 -0.05489505 41.22691057 -0.05341584 48.93896484 -0.04199219 C56.85634767 -0.03052247 64.77339129 -0.04457739 72.69072944 -0.07138866 C79.52344508 -0.09364815 86.35605505 -0.1001599 93.18880433 -0.09431225 C97.25416488 -0.09096497 101.31930828 -0.09320704 105.38463783 -0.11056328 C109.212293 -0.12619446 113.03945163 -0.12190104 116.86708832 -0.10325813 C118.2588842 -0.09961606 119.65071823 -0.10254998 121.04247856 -0.11314392 C138.82202422 -0.23797788 152.96774092 4.32425275 166.19799805 16.40405273 C164.87108899 19.25910825 163.35843599 21.58240146 161.38549805 24.02905273 C151.44210524 37.24648952 149.73235424 51.91573898 149.80981445 68.04345703 C149.80573435 69.43505257 149.80038453 70.82664486 149.79388428 72.2182312 C149.7803792 75.9474517 149.78543748 79.67641914 149.79502153 83.40564322 C149.80270201 87.33576799 149.79554997 91.26587338 149.79086304 95.19599915 C149.78543153 101.78825713 149.79253017 108.38041372 149.80688477 114.97265625 C149.82322666 122.56463053 149.81790113 130.15636323 149.80140555 137.74833173 C149.78774028 144.30335308 149.78589492 150.85830223 149.79372156 157.41333324 C149.7983679 161.31251373 149.79910723 165.21158106 149.78911209 169.11075401 C149.78036997 172.77586801 149.78659453 176.44067374 149.80379486 180.10575485 C149.80957496 182.07138917 149.80080795 184.03704993 149.79141235 186.00267029 C149.90417696 201.97255488 154.51458941 215.4145698 164.87768555 227.66186523 C166.19799805 229.40405273 166.19799805 229.40405273 166.19799805 231.40405273 C152.68986193 243.24000179 138.92946527 246.70866819 121.45117188 246.69458008 C119.9637112 246.7005725 118.47625361 246.70737969 116.98880005 246.7149353 C112.96578515 246.73253255 108.94285544 246.7372881 104.91980577 246.73856688 C102.40030624 246.73999291 99.88082805 246.7442711 97.36133385 246.74956131 C88.55418916 246.76804275 79.74710484 246.77623453 70.93994141 246.7746582 C62.75905052 246.7734582 54.57842404 246.79453765 46.3976 246.82614553 C39.35099682 246.8523909 32.30447955 246.86302201 25.25782794 246.86174738 C21.05943819 246.86124006 16.8612835 246.866795 12.66294289 246.88810349 C8.70897291 246.90762514 4.75545881 246.90751655 0.80147171 246.89307022 C-0.63954531 246.89099795 -2.08059193 246.89558721 -3.52155876 246.90779114 C-20.71802492 247.04385486 -35.02683088 242.13448415 -47.61450195 230.21655273 C-57.6452335 219.66474423 -63.89138783 206.85136833 -63.94917297 192.20240784 C-63.95632828 190.95364365 -63.96348358 189.70487946 -63.97085571 188.41827393 C-63.97369568 187.04187037 -63.97640745 185.66546654 -63.97900391 184.2890625 C-63.98527362 182.83322489 -63.99192087 181.37738887 -63.99891663 179.92155457 C-64.01990897 175.1462006 -64.03031839 170.37084651 -64.0402832 165.59545898 C-64.04433335 163.94614076 -64.04845035 162.2968227 -64.05263329 160.64750481 C-64.07167883 152.89261006 -64.08590801 145.13772476 -64.09424525 137.38281113 C-64.1039985 128.460119 -64.13027045 119.53767621 -64.17074615 110.61507183 C-64.20102285 103.70100697 -64.21572525 96.78701307 -64.21902627 89.87288326 C-64.22136469 85.75208798 -64.23016541 81.63155922 -64.25548744 77.51083565 C-64.27897478 73.62586535 -64.28291973 69.74133312 -64.27272606 65.85630989 C-64.27223547 64.4415083 -64.2784127 63.02668361 -64.2922821 61.61194992 C-64.45902792 43.57278115 -59.38762842 29.77982955 -47.0871582 16.65795898 C-33.83695703 3.58895714 -18.17188584 -0.06574404 0 0 Z " fill="#E9560D" transform="translate(63.802001953125,70.595947265625)"/>
<path d="M0 0 C1.23049072 -0.0071553 2.46098145 -0.01431061 3.72875977 -0.02168274 C5.08468603 -0.02452271 6.44061256 -0.02723448 7.79653931 -0.02983093 C9.23105024 -0.03610085 10.66555956 -0.04274812 12.10006714 -0.04974365 C16.80568319 -0.07073615 21.51129936 -0.08114645 26.21694946 -0.09111023 C27.84271893 -0.09516058 29.46848823 -0.09927759 31.09425735 -0.10346031 C38.73969725 -0.12250706 46.38512756 -0.13673516 54.0305866 -0.14507228 C62.82365931 -0.1548215 71.61647874 -0.18108234 80.40946233 -0.22157317 C87.22502986 -0.25186823 94.04052537 -0.26655405 100.85615885 -0.26985329 C104.91718405 -0.27218994 108.97793856 -0.28096661 113.03889084 -0.30631447 C116.86887403 -0.3298338 120.69841294 -0.33373433 124.52845001 -0.32355309 C125.92186855 -0.32306323 127.31531075 -0.32921788 128.70866013 -0.34310913 C146.89230727 -0.51401065 161.19143834 4.24749688 174.56069946 16.79951477 C187.51727769 29.90877995 191.18614308 43.80684659 191.17153931 61.80220032 C191.17753183 63.27980893 191.18433903 64.75741442 191.19189453 66.23501587 C191.20949082 70.23117224 191.21424729 74.22724284 191.2155261 78.22343421 C191.21695219 80.72618283 191.2212305 83.22890996 191.22652054 85.73165321 C191.24500169 94.48044329 191.2531938 103.22917261 191.25161743 111.97798157 C191.25041744 120.10434163 191.27149664 128.23043549 191.30310476 136.35672826 C191.32935119 143.35662277 191.33998119 150.35643081 191.33870661 157.35637408 C191.33819931 161.5268188 191.34375257 165.69702687 191.36506271 169.8674221 C191.38458618 173.79512822 191.38447458 177.72237544 191.37002945 181.6500988 C191.3679574 183.08144053 191.3725451 184.51281206 191.38475037 185.94410324 C191.51320426 202.0681908 187.11346933 217.23150795 175.91616821 229.24092102 C162.07514208 242.20526028 147.74253565 246.45272511 129.22598267 246.43769836 C127.74837406 246.44369089 126.27076856 246.45049809 124.79316711 246.45805359 C120.79701074 246.47564987 116.80094015 246.48040634 112.80474877 246.48168516 C110.30200016 246.48311125 107.79927303 246.48738955 105.29652977 246.4926796 C96.54773969 246.51116074 87.79901037 246.51935285 79.05020142 246.51777649 C70.92384136 246.5165765 62.79774749 246.5376557 54.67145473 246.56926382 C47.67156021 246.59551025 40.67175218 246.60614025 33.6718089 246.60486567 C29.50136419 246.60435837 25.33115612 246.60991162 21.16076088 246.63122177 C17.23305476 246.65074524 13.30580755 246.65063364 9.37808418 246.63618851 C7.94674246 246.63411646 6.51537093 246.63870416 5.08407974 246.65090942 C-9.25970335 246.76518038 -24.25741133 243.65502933 -34.97836304 233.36201477 C-36.36898804 231.70967102 -36.36898804 231.70967102 -38.11898804 229.14717102 C-37.69488647 228.6599054 -37.27078491 228.17263977 -36.83383179 227.67060852 C-25.48358614 213.95053136 -21.8088813 200.34118579 -21.84432983 182.82173157 C-21.83997505 181.39161413 -21.83478937 179.96149903 -21.82884216 178.53138733 C-21.81552181 174.66964088 -21.81486579 170.80799272 -21.81740546 166.94622779 C-21.81848013 163.71100202 -21.81357907 160.47579574 -21.80880004 157.24057418 C-21.79772847 149.60110772 -21.79725389 141.96169044 -21.80331421 134.32221985 C-21.80934962 126.46795005 -21.79704861 118.61385958 -21.77574414 110.75962037 C-21.75807008 103.99241684 -21.75213598 97.22527008 -21.75538188 90.45804435 C-21.75718599 86.42686157 -21.75464666 82.39580667 -21.74066734 78.364645 C-21.72799901 74.56994795 -21.73011713 70.77552825 -21.74307823 66.98083496 C-21.74653321 64.94356549 -21.73533219 62.90628718 -21.72351074 60.86904907 C-21.8198648 43.83035973 -27.05578915 30.10878866 -38.11898804 17.14717102 C-31.49995453 7.36251279 -19.87917704 3.23205721 -8.79927635 0.59508991 C-5.82262303 0.0976437 -3.01831161 0.01208522 0 0 Z " fill="#333F48" transform="translate(480.1189880371094,70.85282897949219)"/>
<path d="M0 0 C9.60155011 8.43772585 15.20231052 20.48271624 17 33 C17.09078671 35.0746073 17.13463746 37.15161049 17.14044189 39.22819519 C17.14615204 40.45742706 17.15186218 41.68665894 17.15774536 42.95314026 C17.15899048 44.30233754 17.16011563 45.65153495 17.16113281 47.00073242 C17.16576593 48.43202847 17.17079125 49.86332329 17.17617798 51.2946167 C17.18925736 55.17297502 17.19573832 59.05131607 17.20018864 62.92969298 C17.20312689 65.35702923 17.20723312 67.78436083 17.21169281 70.21169472 C17.22535667 77.81868249 17.23502847 85.42565956 17.2388947 93.03265876 C17.24337133 101.79062506 17.26090549 110.54843497 17.2898953 119.30635375 C17.31156863 126.09130708 17.32160201 132.8762166 17.32293582 139.66120416 C17.32397991 143.70638417 17.32980265 147.75141696 17.34775543 151.79656029 C17.364334 155.60597238 17.36634466 159.4151281 17.35761642 163.2245636 C17.35685122 164.61481734 17.36111975 166.00508542 17.37107468 167.39530373 C17.48354714 184.09510811 12.90229519 199.80740493 1 212 C-4.75281466 210.08239511 -8.03470304 203.13704464 -11 198 C-14.89887296 189.69887847 -17.10548643 181.99519202 -17.15390015 172.80545044 C-17.16250061 171.58344437 -17.17110107 170.36143829 -17.17996216 169.10240173 C-17.18439658 167.76113934 -17.18869501 166.4198765 -17.19287109 165.07861328 C-17.20078162 163.65542913 -17.20905114 162.23224693 -17.21765137 160.80906677 C-17.24377394 156.14616789 -17.25917488 151.48326051 -17.2734375 146.8203125 C-17.27880226 145.20787426 -17.28417977 143.59543605 -17.28956985 141.98299789 C-17.31118928 135.26765531 -17.32991968 128.55231502 -17.34119225 121.83694649 C-17.35739088 112.25374068 -17.39047952 102.67094284 -17.44759309 93.08789074 C-17.48648652 86.32834015 -17.50584804 79.56889775 -17.51111281 72.80923831 C-17.51474147 68.78333603 -17.5264931 64.75786979 -17.55921555 60.73209 C-17.88977077 17.953626 -17.88977077 17.953626 -2.0625 1.8125 C-1.381875 1.214375 -0.70125 0.61625 0 0 Z " fill="#BB834D" transform="translate(442,88)"/>
<path d="M0 0 C10.12646055 8.89901078 15.91526735 21.69687608 17 35 C17.14748747 39.6255646 17.14688602 44.24883236 17.14526367 48.87646484 C17.14826029 50.27026967 17.15166397 51.66407366 17.15544128 53.05787659 C17.16423345 56.82448757 17.16661735 60.5910758 17.16725707 64.35769606 C17.16797019 66.71568631 17.17010942 69.07367087 17.17275429 71.4316597 C17.18199123 79.67124038 17.18609116 87.91080494 17.18530273 96.15039062 C17.18470209 103.80980204 17.19525559 111.46914299 17.2110464 119.12853658 C17.22415394 125.72328278 17.2294853 132.31800603 17.22884732 138.91276515 C17.22859332 142.84327021 17.23139037 146.77371257 17.24202538 150.70420456 C17.2517609 154.40279681 17.25174848 158.10126707 17.24450874 161.79986382 C17.24297758 163.78981498 17.25127099 165.77976627 17.25994873 167.7696991 C17.20497101 183.56915952 13.52194323 199.36352453 2 211 C0.68 211 -0.64 211 -2 211 C-11.50101934 200.61516491 -17.0998253 187.007809 -17.14044189 172.95057678 C-17.14615204 171.76078217 -17.15186218 170.57098755 -17.15774536 169.34513855 C-17.15886322 168.05312027 -17.15998108 166.76110199 -17.16113281 165.42993164 C-17.1657664 164.04453399 -17.17079178 162.6591376 -17.17617798 161.27374268 C-17.1892578 157.51907879 -17.19573907 153.76443275 -17.20018864 150.00974965 C-17.20312841 147.6574265 -17.20723504 145.30510813 -17.21169281 142.9527874 C-17.2253603 135.57431597 -17.23502885 128.19585558 -17.2388947 120.81737238 C-17.24336431 112.3356462 -17.26086412 103.85408207 -17.2898953 95.37240511 C-17.31161792 88.79460615 -17.3216047 82.2168524 -17.32293582 75.639018 C-17.32397694 71.72114054 -17.32973426 67.80341554 -17.34775543 63.88557625 C-17.36441873 60.19105812 -17.36630476 56.49680402 -17.35761642 52.80226135 C-17.35649727 50.82636061 -17.37007543 48.85046789 -17.3843689 46.87461853 C-17.30069262 28.61669686 -13.16877425 13.23562082 0 0 Z " fill="#F78A39" transform="translate(230,88)"/>
<path d="M0 0 C4.1722999 2.69558702 8.82122194 5.81822514 11.0859375 10.34765625 C11.5809375 3.91265625 11.5809375 3.91265625 12.0859375 -2.65234375 C15.0559375 -2.65234375 18.0259375 -2.65234375 21.0859375 -2.65234375 C21.17892131 8.37061291 21.24984601 19.39347511 21.29318619 30.41674519 C21.31399511 35.5361912 21.34218959 40.65536742 21.38769531 45.7746582 C21.43139291 50.72191683 21.45512487 55.66891715 21.46544647 60.61635399 C21.47279513 62.4968694 21.48714461 64.37737185 21.50885773 66.25777626 C21.64344447 78.40453484 21.47585401 89.74671244 13.625 99.7890625 C6.87220784 106.62754999 -1.92772012 110.6832706 -11.51025391 110.76513672 C-12.26226074 110.75111816 -13.01426758 110.73709961 -13.7890625 110.72265625 C-14.57845215 110.71250488 -15.3678418 110.70235352 -16.18115234 110.69189453 C-27.99501101 110.37838131 -35.98235979 106.68958133 -44.1640625 98.16015625 C-47.44053231 94.17647028 -50.9140625 87.6306951 -50.9140625 82.34765625 C-47.6140625 82.34765625 -44.3140625 82.34765625 -40.9140625 82.34765625 C-40.511875 83.32605469 -40.511875 83.32605469 -40.1015625 84.32421875 C-36.77024614 91.7539309 -32.93460137 96.02985446 -25.51953125 99.453125 C-17.2756894 102.2834695 -8.81895596 101.95364521 -0.9140625 98.34765625 C4.92017497 94.71501783 7.70743648 89.64926253 10.0859375 83.34765625 C11.176446 78.53460949 11.20607719 73.87646352 11.1484375 68.97265625 C11.14392578 68.23660156 11.13941406 67.50054687 11.13476562 66.7421875 C11.12308892 64.94397467 11.10515761 63.14580428 11.0859375 61.34765625 C10.0959375 62.92546875 10.0959375 62.92546875 9.0859375 64.53515625 C4.54739534 70.86860209 -1.45312165 73.59214076 -8.9140625 75.34765625 C-21.3391233 76.78052253 -32.58698069 75.42790184 -42.7890625 67.66015625 C-50.50546621 60.28252149 -54.41967808 50.36320666 -55.16015625 39.85546875 C-55.4033578 26.55091341 -52.97709717 16.11386276 -43.8359375 6.171875 C-33.03479852 -4.08042562 -13.44660077 -6.58175722 0 0 Z M-39.9140625 16.34765625 C-45.41545299 24.6149392 -45.64205089 33.65501083 -44.9140625 43.34765625 C-43.30193826 51.00039058 -39.94318812 57.29558261 -33.9140625 62.34765625 C-26.80878945 66.89080482 -18.62098964 68.18017265 -10.3515625 66.78515625 C-3.32436357 64.94113951 3.21278783 60.51600573 7.0859375 54.34765625 C12.04728324 45.54929852 13.17863545 36.51365368 10.80078125 26.69140625 C8.04054482 17.64145073 3.0435687 12.2639099 -5.1015625 7.47265625 C-18.13187092 2.26053288 -30.83772197 5.97469564 -39.9140625 16.34765625 Z " fill="#000000" transform="translate(1066.9140625,387.65234375)"/>
<path d="M0 0 C4.1722999 2.69558702 8.82122194 5.81822514 11.0859375 10.34765625 C11.5809375 3.91265625 11.5809375 3.91265625 12.0859375 -2.65234375 C15.0559375 -2.65234375 18.0259375 -2.65234375 21.0859375 -2.65234375 C21.17892131 8.37061291 21.24984601 19.39347511 21.29318619 30.41674519 C21.31399511 35.5361912 21.34218959 40.65536742 21.38769531 45.7746582 C21.43139291 50.72191683 21.45512487 55.66891715 21.46544647 60.61635399 C21.47279513 62.4968694 21.48714461 64.37737185 21.50885773 66.25777626 C21.64344447 78.40453484 21.47585401 89.74671244 13.625 99.7890625 C6.87220784 106.62754999 -1.92772012 110.6832706 -11.51025391 110.76513672 C-12.26226074 110.75111816 -13.01426758 110.73709961 -13.7890625 110.72265625 C-14.57845215 110.71250488 -15.3678418 110.70235352 -16.18115234 110.69189453 C-27.99501101 110.37838131 -35.98235979 106.68958133 -44.1640625 98.16015625 C-47.44053231 94.17647028 -50.9140625 87.6306951 -50.9140625 82.34765625 C-47.6140625 82.34765625 -44.3140625 82.34765625 -40.9140625 82.34765625 C-40.511875 83.32605469 -40.511875 83.32605469 -40.1015625 84.32421875 C-36.77024614 91.7539309 -32.93460137 96.02985446 -25.51953125 99.453125 C-17.2756894 102.2834695 -8.81895596 101.95364521 -0.9140625 98.34765625 C4.92017497 94.71501783 7.70743648 89.64926253 10.0859375 83.34765625 C11.176446 78.53460949 11.20607719 73.87646352 11.1484375 68.97265625 C11.14392578 68.23660156 11.13941406 67.50054687 11.13476562 66.7421875 C11.12308892 64.94397467 11.10515761 63.14580428 11.0859375 61.34765625 C10.0959375 62.92546875 10.0959375 62.92546875 9.0859375 64.53515625 C4.54739534 70.86860209 -1.45312165 73.59214076 -8.9140625 75.34765625 C-21.3391233 76.78052253 -32.58698069 75.42790184 -42.7890625 67.66015625 C-50.50546621 60.28252149 -54.41967808 50.36320666 -55.16015625 39.85546875 C-55.4033578 26.55091341 -52.97709717 16.11386276 -43.8359375 6.171875 C-33.03479852 -4.08042562 -13.44660077 -6.58175722 0 0 Z M-39.9140625 16.34765625 C-45.41545299 24.6149392 -45.64205089 33.65501083 -44.9140625 43.34765625 C-43.30193826 51.00039058 -39.94318812 57.29558261 -33.9140625 62.34765625 C-26.80878945 66.89080482 -18.62098964 68.18017265 -10.3515625 66.78515625 C-3.32436357 64.94113951 3.21278783 60.51600573 7.0859375 54.34765625 C12.04728324 45.54929852 13.17863545 36.51365368 10.80078125 26.69140625 C8.04054482 17.64145073 3.0435687 12.2639099 -5.1015625 7.47265625 C-18.13187092 2.26053288 -30.83772197 5.97469564 -39.9140625 16.34765625 Z " fill="#000000" transform="translate(1331.9140625,95.65234375)"/>
<path d="M0 0 C3.92138335 2.96806459 5.93462016 6.57833546 8.12109375 10.8671875 C8.46140625 10.27550781 8.80171875 9.68382813 9.15234375 9.07421875 C13.47020637 2.03472465 17.74306178 -1.33009345 25.30859375 -4.4453125 C36.51725804 -6.46654704 46.05017401 -5.21823279 55.93359375 0.4921875 C64.8765785 10.2017138 66.43612457 20.31063644 66.31640625 33.0234375 C66.31357635 34.16631226 66.31074646 35.30918701 66.30783081 36.48669434 C66.296694 40.11363482 66.27160116 43.74032246 66.24609375 47.3671875 C66.23605556 49.83593392 66.22693118 52.30468423 66.21875 54.7734375 C66.1967759 60.80478396 66.16229078 66.83594295 66.12109375 72.8671875 C62.82109375 72.8671875 59.52109375 72.8671875 56.12109375 72.8671875 C56.10651123 71.33384766 56.09192871 69.80050781 56.0769043 68.22070312 C56.01875797 62.51018419 55.94152538 56.80005281 55.85864258 51.08984375 C55.82547012 48.62246001 55.79741449 46.15500179 55.7746582 43.6875 C55.74097162 40.13249084 55.68864673 36.57815952 55.6328125 33.0234375 C55.62642258 31.92729126 55.62003265 30.83114502 55.6134491 29.70178223 C55.46949794 22.13502684 54.77170752 16.09090695 49.80859375 10.0546875 C43.16046314 4.6434184 37.50807565 4.04427126 29.12109375 4.8671875 C23.98193339 6.06818693 20.40903473 8.77947709 17.12109375 12.8671875 C12.56673689 21.16317087 11.96780256 28.99209205 11.8046875 38.296875 C11.77351585 39.7823735 11.77351585 39.7823735 11.74171448 41.29788208 C11.67659055 44.44591668 11.61750746 47.59403117 11.55859375 50.7421875 C11.51537316 52.8828206 11.47175776 55.02344576 11.42773438 57.1640625 C11.32094743 62.39835665 11.21957627 67.63273078 11.12109375 72.8671875 C8.15109375 72.8671875 5.18109375 72.8671875 2.12109375 72.8671875 C2.09136475 70.8555249 2.09136475 70.8555249 2.06103516 68.80322266 C1.98450536 63.7896972 1.89586369 58.7764442 1.80371094 53.76318359 C1.76561581 51.60047821 1.73073034 49.43771367 1.69921875 47.27490234 C1.65314261 44.15180425 1.5952214 41.02910673 1.53515625 37.90625 C1.52360504 36.95166901 1.51205383 35.99708801 1.50015259 35.01358032 C1.30447045 25.95120617 0.52686344 17.37520095 -4.87890625 9.8671875 C-11.63299573 4.62932219 -17.54722318 4.11649017 -25.87890625 4.8671875 C-31.76086692 6.5491207 -35.46159133 9.7900339 -38.87890625 14.8671875 C-43.26971061 23.39159428 -43.00498602 33.21734682 -43.1953125 42.59375 C-43.2160936 43.46744232 -43.23687469 44.34113464 -43.25828552 45.24130249 C-43.32289251 47.99152915 -43.38224598 50.74183885 -43.44140625 53.4921875 C-43.48467631 55.37370599 -43.52829307 57.25521654 -43.57226562 59.13671875 C-43.67848061 63.71345982 -43.77998914 68.29028312 -43.87890625 72.8671875 C-46.84890625 72.8671875 -49.81890625 72.8671875 -52.87890625 72.8671875 C-52.87890625 47.4571875 -52.87890625 22.0471875 -52.87890625 -4.1328125 C-49.90890625 -4.1328125 -46.93890625 -4.1328125 -43.87890625 -4.1328125 C-43.54890625 -0.8328125 -43.21890625 2.4671875 -42.87890625 5.8671875 C-42.21890625 4.9596875 -41.55890625 4.0521875 -40.87890625 3.1171875 C-31.06176313 -8.68011801 -12.05168259 -7.26608722 0 0 Z " fill="#000000" transform="translate(961.87890625,97.1328125)"/>
<path d="M0 0 C2.97 0 5.94 0 9 0 C9.33 13.2 9.66 26.4 10 40 C11.65 37.69 13.3 35.38 15 33 C16.9921875 31.29296875 16.9921875 31.29296875 18.875 30.1875 C19.49117187 29.80980469 20.10734375 29.43210937 20.7421875 29.04296875 C30.54120316 24.51643383 43.70832595 24.21767626 54 27.4375 C62.77408971 31.28460087 69.32060469 37.86107269 73.10546875 46.62109375 C77.52694621 58.37952072 77.51870268 71.23256376 73.3203125 83.09375 C68.9917123 92.62179305 61.82689581 98.65527091 52.26953125 102.63671875 C47.85961485 104.22985951 43.784246 104.49990284 39.125 104.4375 C38.33633545 104.43065186 37.5476709 104.42380371 36.73510742 104.41674805 C27.32930373 104.15824577 20.18674427 101.01339827 13 95 C12.01 93.35 11.02 91.7 10 90 C9.67 94.29 9.34 98.58 9 103 C6.03 103 3.06 103 0 103 C0 69.01 0 35.02 0 0 Z M15.8125 44.25 C9.03226663 52.75643452 8.88512225 62.54641188 10 73 C11.72597551 80.68400396 15.66954462 87.11552712 22.2578125 91.50390625 C30.17708123 95.86074532 38.0522826 97.11688624 46.8359375 94.7890625 C55.04691684 91.7951675 60.55941779 86.43193407 64.3125 78.625 C67.45291435 70.18673217 67.59799211 58.42941025 64.16796875 50.0234375 C59.49907097 41.93484536 53.36778768 36.9103363 44.5 34.25 C33.14695533 33.11469553 23.78334614 35.65398946 15.8125 44.25 Z " fill="#000000" transform="translate(1043,67)"/>
<path d="M0 0 C2.97 0 5.94 0 9 0 C9 33.99 9 67.98 9 103 C6.03 103 3.06 103 0 103 C-0.33 98.71 -0.66 94.42 -1 90 C-1.99 91.5778125 -1.99 91.5778125 -3 93.1875 C-7.53854216 99.52094584 -13.53905915 102.24448451 -21 104 C-33.4250608 105.43286628 -44.67291819 104.08024559 -54.875 96.3125 C-62.59140371 88.93486524 -66.50561558 79.01555041 -67.24609375 68.5078125 C-67.4892953 55.20325716 -65.06303467 44.76620651 -55.921875 34.82421875 C-47.02368765 26.37817507 -37.03682001 25.50723069 -25.32421875 25.7578125 C-16.00545647 26.16029058 -9.80679607 29.66809668 -3 36 C-2.34 36.99 -1.68 37.98 -1 39 C-0.67 26.13 -0.34 13.26 0 0 Z M-52 45 C-57.50139049 53.26728295 -57.72798839 62.30735458 -57 72 C-55.38787576 79.65273433 -52.02912562 85.94792636 -46 91 C-38.89472695 95.54314857 -30.70692714 96.8325164 -22.4375 95.4375 C-15.41030107 93.59348326 -8.87314967 89.16834948 -5 83 C-0.03865426 74.20164227 1.09269795 65.16599743 -1.28515625 55.34375 C-4.04539268 46.29379448 -9.0423688 40.91625365 -17.1875 36.125 C-30.21780842 30.91287663 -42.92365947 34.62703939 -52 45 Z " fill="#000000" transform="translate(1257,67)"/>
<path d="M0 0 C1.18106323 -0.0153479 1.18106323 -0.0153479 2.38598633 -0.03100586 C12.43665394 0.11891022 20.15523191 3.46246981 27.375 10.4375 C33.6864711 17.60150097 36.44809821 26.437874 36.625 35.9375 C36.375 39.4375 36.375 39.4375 35.375 43.4375 C14.585 43.4375 -6.205 43.4375 -27.625 43.4375 C-24.72728384 55.68733461 -24.72728384 55.68733461 -19.625 61.4375 C-19.625 62.0975 -19.625 62.7575 -19.625 63.4375 C-10.24570976 68.31473092 -1.42761023 71.41760148 9 68.1875 C15.63741608 65.73131333 19.87068278 62.69520932 23.375 56.4375 C24.61824147 53.2125792 24.61824147 53.2125792 25.375 50.4375 C28.675 50.4375 31.975 50.4375 35.375 50.4375 C33.72929187 60.01252913 30.2857327 66.71593773 22.63671875 72.89453125 C13.05783043 79.42935143 1.60089388 79.82441645 -9.625 78.4375 C-19.36534691 75.9841436 -26.44289088 71.12339747 -31.875 62.75 C-38.27923187 51.26005458 -39.23548073 38.923142 -36.5 26.125 C-33.63359706 16.09925578 -27.35814888 8.32112512 -18.3359375 3.1171875 C-12.32048984 0.45400169 -6.48455683 0.06488967 0 0 Z M-21.625 17.4375 C-26.10635607 23.70162988 -26.72038093 27.29592835 -27.625 35.4375 C-9.805 35.4375 8.015 35.4375 26.375 35.4375 C25.44316302 26.11913017 24.59822881 19.95231519 17.4453125 13.76953125 C5.13386158 5.6018177 -11.29099846 6.3653555 -21.625 17.4375 Z " fill="#000000" transform="translate(1374.625,384.5625)"/>
<path d="M0 0 C1.18106323 -0.0153479 1.18106323 -0.0153479 2.38598633 -0.03100586 C12.43665394 0.11891022 20.15523191 3.46246981 27.375 10.4375 C33.6864711 17.60150097 36.44809821 26.437874 36.625 35.9375 C36.375 39.4375 36.375 39.4375 35.375 43.4375 C14.585 43.4375 -6.205 43.4375 -27.625 43.4375 C-24.72728384 55.68733461 -24.72728384 55.68733461 -19.625 61.4375 C-19.625 62.0975 -19.625 62.7575 -19.625 63.4375 C-10.24570976 68.31473092 -1.42761023 71.41760148 9 68.1875 C15.63741608 65.73131333 19.87068278 62.69520932 23.375 56.4375 C24.61824147 53.2125792 24.61824147 53.2125792 25.375 50.4375 C28.675 50.4375 31.975 50.4375 35.375 50.4375 C33.72929187 60.01252913 30.2857327 66.71593773 22.63671875 72.89453125 C13.05783043 79.42935143 1.60089388 79.82441645 -9.625 78.4375 C-19.36534691 75.9841436 -26.44289088 71.12339747 -31.875 62.75 C-38.27923187 51.26005458 -39.23548073 38.923142 -36.5 26.125 C-33.63359706 16.09925578 -27.35814888 8.32112512 -18.3359375 3.1171875 C-12.32048984 0.45400169 -6.48455683 0.06488967 0 0 Z M-21.625 17.4375 C-26.10635607 23.70162988 -26.72038093 27.29592835 -27.625 35.4375 C-9.805 35.4375 8.015 35.4375 26.375 35.4375 C25.44316302 26.11913017 24.59822881 19.95231519 17.4453125 13.76953125 C5.13386158 5.6018177 -11.29099846 6.3653555 -21.625 17.4375 Z " fill="#000000" transform="translate(1135.625,384.5625)"/>
<path d="M0 0 C1.18106323 -0.0153479 1.18106323 -0.0153479 2.38598633 -0.03100586 C12.43665394 0.11891022 20.15523191 3.46246981 27.375 10.4375 C33.6864711 17.60150097 36.44809821 26.437874 36.625 35.9375 C36.375 39.4375 36.375 39.4375 35.375 43.4375 C14.585 43.4375 -6.205 43.4375 -27.625 43.4375 C-24.72728384 55.68733461 -24.72728384 55.68733461 -19.625 61.4375 C-19.625 62.0975 -19.625 62.7575 -19.625 63.4375 C-10.24570976 68.31473092 -1.42761023 71.41760148 9 68.1875 C15.63741608 65.73131333 19.87068278 62.69520932 23.375 56.4375 C24.61824147 53.2125792 24.61824147 53.2125792 25.375 50.4375 C28.675 50.4375 31.975 50.4375 35.375 50.4375 C33.72929187 60.01252913 30.2857327 66.71593773 22.63671875 72.89453125 C13.05783043 79.42935143 1.60089388 79.82441645 -9.625 78.4375 C-19.36534691 75.9841436 -26.44289088 71.12339747 -31.875 62.75 C-38.27923187 51.26005458 -39.23548073 38.923142 -36.5 26.125 C-33.63359706 16.09925578 -27.35814888 8.32112512 -18.3359375 3.1171875 C-12.32048984 0.45400169 -6.48455683 0.06488967 0 0 Z M-21.625 17.4375 C-26.10635607 23.70162988 -26.72038093 27.29592835 -27.625 35.4375 C-9.805 35.4375 8.015 35.4375 26.375 35.4375 C25.44316302 26.11913017 24.59822881 19.95231519 17.4453125 13.76953125 C5.13386158 5.6018177 -11.29099846 6.3653555 -21.625 17.4375 Z " fill="#000000" transform="translate(901.625,384.5625)"/>
<path d="M0 0 C1.18106323 -0.0153479 1.18106323 -0.0153479 2.38598633 -0.03100586 C12.43665394 0.11891022 20.15523191 3.46246981 27.375 10.4375 C33.6864711 17.60150097 36.44809821 26.437874 36.625 35.9375 C36.375 39.4375 36.375 39.4375 35.375 43.4375 C14.585 43.4375 -6.205 43.4375 -27.625 43.4375 C-24.72728384 55.68733461 -24.72728384 55.68733461 -19.625 61.4375 C-19.625 62.0975 -19.625 62.7575 -19.625 63.4375 C-10.24570976 68.31473092 -1.42761023 71.41760148 9 68.1875 C15.63741608 65.73131333 19.87068278 62.69520932 23.375 56.4375 C24.61824147 53.2125792 24.61824147 53.2125792 25.375 50.4375 C28.675 50.4375 31.975 50.4375 35.375 50.4375 C33.72929187 60.01252913 30.2857327 66.71593773 22.63671875 72.89453125 C13.05783043 79.42935143 1.60089388 79.82441645 -9.625 78.4375 C-19.36534691 75.9841436 -26.44289088 71.12339747 -31.875 62.75 C-38.27923187 51.26005458 -39.23548073 38.923142 -36.5 26.125 C-33.63359706 16.09925578 -27.35814888 8.32112512 -18.3359375 3.1171875 C-12.32048984 0.45400169 -6.48455683 0.06488967 0 0 Z M-21.625 17.4375 C-26.10635607 23.70162988 -26.72038093 27.29592835 -27.625 35.4375 C-9.805 35.4375 8.015 35.4375 26.375 35.4375 C25.44316302 26.11913017 24.59822881 19.95231519 17.4453125 13.76953125 C5.13386158 5.6018177 -11.29099846 6.3653555 -21.625 17.4375 Z " fill="#000000" transform="translate(1400.625,92.5625)"/>
<path d="M0 0 C4.1722999 2.69558702 8.82122194 5.81822514 11.0859375 10.34765625 C11.5809375 3.91265625 11.5809375 3.91265625 12.0859375 -2.65234375 C15.0559375 -2.65234375 18.0259375 -2.65234375 21.0859375 -2.65234375 C21.0859375 22.75765625 21.0859375 48.16765625 21.0859375 74.34765625 C18.1159375 74.34765625 15.1459375 74.34765625 12.0859375 74.34765625 C11.7559375 70.05765625 11.4259375 65.76765625 11.0859375 61.34765625 C10.0959375 62.92546875 10.0959375 62.92546875 9.0859375 64.53515625 C4.54739534 70.86860209 -1.45312165 73.59214076 -8.9140625 75.34765625 C-21.3391233 76.78052253 -32.58698069 75.42790184 -42.7890625 67.66015625 C-50.50546621 60.28252149 -54.41967808 50.36320666 -55.16015625 39.85546875 C-55.4033578 26.55091341 -52.97709717 16.11386276 -43.8359375 6.171875 C-33.03479852 -4.08042562 -13.44660077 -6.58175722 0 0 Z M-39.9140625 16.34765625 C-45.41545299 24.6149392 -45.64205089 33.65501083 -44.9140625 43.34765625 C-43.30193826 51.00039058 -39.94318812 57.29558261 -33.9140625 62.34765625 C-26.80878945 66.89080482 -18.62098964 68.18017265 -10.3515625 66.78515625 C-3.32436357 64.94113951 3.21278783 60.51600573 7.0859375 54.34765625 C12.04728324 45.54929852 13.17863545 36.51365368 10.80078125 26.69140625 C8.04054482 17.64145073 3.0435687 12.2639099 -5.1015625 7.47265625 C-18.13187092 2.26053288 -30.83772197 5.97469564 -39.9140625 16.34765625 Z " fill="#000000" transform="translate(872.9140625,95.65234375)"/>
<path d="M0 0 C7.19500282 5.6698485 11.7307543 12.46149947 15 21 C15 21.99 15 22.98 15 24 C11.49468251 24.62347544 8.47679897 24.86141586 5 24 C1.72553326 20.46039426 -0.08688081 16.21982424 -1.90625 11.796875 C-3.29766694 9.51097574 -4.55299611 9.01317721 -7 8 C-7.93779297 7.505 -7.93779297 7.505 -8.89453125 7 C-9.52746094 6.67 -10.16039062 6.34 -10.8125 6 C-11.75029297 5.505 -11.75029297 5.505 -12.70703125 5 C-22.15134556 0.8811849 -33.06474467 0.34307818 -42.875 3.5625 C-53.45350461 8.07368993 -59.71141596 14.95293451 -64.03125 25.5234375 C-68.3376232 38.80142153 -66.97397307 53.22864463 -60.6796875 65.59375 C-56.05002522 73.1833603 -49.35565395 78.24726753 -41.03125 81.3046875 C-29.4655049 83.9576548 -18.09912185 82.53097726 -7.765625 76.75 C-1.47529609 72.58797786 1.69358202 66.61283596 5 60 C8.3 60 11.6 60 15 60 C14.59511388 67.69283635 9.26754791 75.58195072 4 81 C-9.15993667 91.33801211 -22.79848779 92.96480112 -39 92 C-46.58877944 90.87784966 -52.69334254 87.21574056 -59 83 C-60.3303125 82.13375 -60.3303125 82.13375 -61.6875 81.25 C-68.10980992 75.00126602 -72.26805388 67.4704058 -75 59 C-75.22558594 58.31808594 -75.45117188 57.63617188 -75.68359375 56.93359375 C-79.51758613 42.99901454 -77.359271 27.057736 -70.56640625 14.4453125 C-63.23918092 3.00680114 -53.53695543 -3.65187813 -40.5625 -7.30859375 C-26.51963425 -10.03401835 -12.11019562 -7.81871853 0 0 Z " fill="#000000" transform="translate(794,225)"/>
<path d="M0 0 C7.19500282 5.6698485 11.7307543 12.46149947 15 21 C15 21.99 15 22.98 15 24 C11.49468251 24.62347544 8.47679897 24.86141586 5 24 C1.72553326 20.46039426 -0.08688081 16.21982424 -1.90625 11.796875 C-3.29766694 9.51097574 -4.55299611 9.01317721 -7 8 C-7.93779297 7.505 -7.93779297 7.505 -8.89453125 7 C-9.52746094 6.67 -10.16039062 6.34 -10.8125 6 C-11.75029297 5.505 -11.75029297 5.505 -12.70703125 5 C-22.15134556 0.8811849 -33.06474467 0.34307818 -42.875 3.5625 C-53.45350461 8.07368993 -59.71141596 14.95293451 -64.03125 25.5234375 C-68.3376232 38.80142153 -66.97397307 53.22864463 -60.6796875 65.59375 C-56.05002522 73.1833603 -49.35565395 78.24726753 -41.03125 81.3046875 C-29.4655049 83.9576548 -18.09912185 82.53097726 -7.765625 76.75 C-1.47529609 72.58797786 1.69358202 66.61283596 5 60 C8.3 60 11.6 60 15 60 C14.59511388 67.69283635 9.26754791 75.58195072 4 81 C-9.15993667 91.33801211 -22.79848779 92.96480112 -39 92 C-46.58877944 90.87784966 -52.69334254 87.21574056 -59 83 C-60.3303125 82.13375 -60.3303125 82.13375 -61.6875 81.25 C-68.10980992 75.00126602 -72.26805388 67.4704058 -75 59 C-75.22558594 58.31808594 -75.45117188 57.63617188 -75.68359375 56.93359375 C-79.51758613 42.99901454 -77.359271 27.057736 -70.56640625 14.4453125 C-63.23918092 3.00680114 -53.53695543 -3.65187813 -40.5625 -7.30859375 C-26.51963425 -10.03401835 -12.11019562 -7.81871853 0 0 Z " fill="#000000" transform="translate(794,79)"/>
<path d="M0 0 C9.06899468 6.38857205 13.96135225 14.10975571 16 25 C17.37450183 37.58116224 16.04260062 50.00707972 8.375 60.4375 C2.25438892 67.44713839 -5.69287073 72.22383851 -15.06860352 73.21972656 C-27.38856729 73.88079101 -38.33935599 72.86710919 -48.22265625 64.7421875 C-56.62576462 56.50529446 -60.1454508 45.46808332 -60.4375 33.875 C-60.05094832 22.62759303 -57.05275683 12.15894554 -48.99609375 3.9609375 C-35.68529195 -7.23061321 -14.95103506 -9.31895075 0 0 Z M-44 13 C-49.98569995 22.8514645 -51.75931411 32.63795882 -49.3515625 44.08203125 C-46.99885298 51.2708659 -43.36081243 57.21167384 -36.8984375 61.34375 C-29.37151939 65.06731373 -21.27977485 65.94752381 -13.16015625 63.78515625 C-5.95251014 61.16537891 0.44799883 56.30657837 3.81811523 49.29882812 C5.94409191 44.1949696 6.51232417 39.62369248 6.4375 34.125 C6.42920166 33.33633545 6.42090332 32.5476709 6.41235352 31.73510742 C6.17446856 23.51072183 4.39063426 17.28193946 -1.25 11.125 C-7.69482788 5.26103643 -14.97685613 2.57439358 -23.69140625 2.72265625 C-31.4169562 3.650768 -39.03414927 6.89614181 -44 13 Z " fill="#000000" transform="translate(1410,244)"/>
<path d="M0 0 C9.06899468 6.38857205 13.96135225 14.10975571 16 25 C17.37450183 37.58116224 16.04260062 50.00707972 8.375 60.4375 C2.25438892 67.44713839 -5.69287073 72.22383851 -15.06860352 73.21972656 C-27.38856729 73.88079101 -38.33935599 72.86710919 -48.22265625 64.7421875 C-56.62576462 56.50529446 -60.1454508 45.46808332 -60.4375 33.875 C-60.05094832 22.62759303 -57.05275683 12.15894554 -48.99609375 3.9609375 C-35.68529195 -7.23061321 -14.95103506 -9.31895075 0 0 Z M-44 13 C-49.98569995 22.8514645 -51.75931411 32.63795882 -49.3515625 44.08203125 C-46.99885298 51.2708659 -43.36081243 57.21167384 -36.8984375 61.34375 C-29.37151939 65.06731373 -21.27977485 65.94752381 -13.16015625 63.78515625 C-5.95251014 61.16537891 0.44799883 56.30657837 3.81811523 49.29882812 C5.94409191 44.1949696 6.51232417 39.62369248 6.4375 34.125 C6.42920166 33.33633545 6.42090332 32.5476709 6.41235352 31.73510742 C6.17446856 23.51072183 4.39063426 17.28193946 -1.25 11.125 C-7.69482788 5.26103643 -14.97685613 2.57439358 -23.69140625 2.72265625 C-31.4169562 3.650768 -39.03414927 6.89614181 -44 13 Z " fill="#000000" transform="translate(878,244)"/>
<path d="M0 0 C3.3 0 6.6 0 10 0 C10.01458252 1.53333984 10.02916504 3.06667969 10.04418945 4.64648438 C10.10233578 10.35700331 10.17956837 16.06713469 10.26245117 21.77734375 C10.29562363 24.24472749 10.32367926 26.71218571 10.34643555 29.1796875 C10.38012213 32.73469666 10.43244702 36.28902798 10.48828125 39.84375 C10.49467117 40.93989624 10.5010611 42.03604248 10.50764465 43.16540527 C10.65079613 50.69012576 11.80822446 56.14247505 15.5625 62.75 C20.21223382 67.04206198 26.19378766 69.17516846 32.5 69.5 C39.23536728 69.13044887 45.68804621 66.82802667 50.4375 61.9375 C55.98224573 54.32162497 56.45179625 44.75298749 56.51171875 35.64453125 C56.52966995 34.61688156 56.54762115 33.58923187 56.56611633 32.53044128 C56.61971988 29.29116763 56.65395343 26.05203697 56.6875 22.8125 C56.72071724 20.5982876 56.75521088 18.38409395 56.79101562 16.16992188 C56.87541706 10.78005201 56.94246447 5.39022087 57 0 C60.3 0 63.6 0 67 0 C67 25.41 67 50.82 67 77 C63.7 77 60.4 77 57 77 C56.505 72.545 56.505 72.545 56 68 C55.071875 69.0828125 55.071875 69.0828125 54.125 70.1875 C48.25989152 75.97023337 40.92626026 78.69575306 32.7890625 79.0625 C23.69917871 78.85880513 16.13963896 76.82444231 9 71 C0.52650261 61.97232873 -0.47048156 49.71903931 -0.29296875 37.890625 C-0.28872391 36.79780212 -0.28447906 35.70497925 -0.28010559 34.57904053 C-0.26349769 31.13576151 -0.22588002 27.69309797 -0.1875 24.25 C-0.17243002 21.89584187 -0.1587457 19.54167444 -0.14648438 17.1875 C-0.11365299 11.45810118 -0.06199695 5.72915443 0 0 Z " fill="#000000" transform="translate(1131,239)"/>
<path d="M0 0 C7.31944702 4.99340514 12.33719107 11.30864071 14.3125 20 C14.539375 21.32 14.76625 22.64 15 24 C11.7 24 8.4 24 5 24 C4.4225 22.618125 3.845 21.23625 3.25 19.8125 C-0.04034061 12.52348157 -3.60140104 8.94787927 -11 6 C-19.70061837 3.38808475 -27.98498271 5.03139921 -36 9 C-41.83374751 13.59252464 -45.92357035 20.60939152 -47 28 C-47.86680914 38.65124563 -46.97016157 48.27106213 -40.25 56.9375 C-34.76203691 62.73112179 -28.10729591 64.64592277 -20.375 65.3125 C-13.70174678 65.21119824 -7.32198908 62.77854483 -2.0625 58.75 C1.12709029 54.49721295 3.32181844 50.03454469 5 45 C8.3 45 11.6 45 15 45 C13.61228884 54.85274921 10.0159239 62.50250177 2.00390625 68.71484375 C-7.72174483 74.95215215 -18.79317796 75.19944398 -30 74 C-39.43433084 71.92677668 -47.23696953 65.96855138 -52.75 58.1484375 C-59.03771789 47.34142238 -59.48019455 33.64074557 -56.875 21.6875 C-54.00859706 11.66175578 -47.73314888 3.88362512 -38.7109375 -1.3203125 C-27.37893057 -6.33726913 -10.80585511 -6.24051939 0 0 Z " fill="#000000" transform="translate(1315,389)"/>
<path d="M0 0 C7.31944702 4.99340514 12.33719107 11.30864071 14.3125 20 C14.539375 21.32 14.76625 22.64 15 24 C11.7 24 8.4 24 5 24 C4.4225 22.618125 3.845 21.23625 3.25 19.8125 C-0.04034061 12.52348157 -3.60140104 8.94787927 -11 6 C-19.70061837 3.38808475 -27.98498271 5.03139921 -36 9 C-41.83374751 13.59252464 -45.92357035 20.60939152 -47 28 C-47.86680914 38.65124563 -46.97016157 48.27106213 -40.25 56.9375 C-34.76203691 62.73112179 -28.10729591 64.64592277 -20.375 65.3125 C-13.70174678 65.21119824 -7.32198908 62.77854483 -2.0625 58.75 C1.12709029 54.49721295 3.32181844 50.03454469 5 45 C8.3 45 11.6 45 15 45 C13.61228884 54.85274921 10.0159239 62.50250177 2.00390625 68.71484375 C-7.72174483 74.95215215 -18.79317796 75.19944398 -30 74 C-39.43433084 71.92677668 -47.23696953 65.96855138 -52.75 58.1484375 C-59.03771789 47.34142238 -59.48019455 33.64074557 -56.875 21.6875 C-54.00859706 11.66175578 -47.73314888 3.88362512 -38.7109375 -1.3203125 C-27.37893057 -6.33726913 -10.80585511 -6.24051939 0 0 Z " fill="#000000" transform="translate(1265,243)"/>
<path d="M0 0 C0.79647949 0.00974854 1.59295898 0.01949707 2.41357422 0.02954102 C11.07045891 0.2911453 16.32361827 2.33159621 22.5625 8.4375 C26.88693683 13.58727666 27.68034153 18.86767111 28.125 25.4375 C24.825 25.4375 21.525 25.4375 18.125 25.4375 C17.5371875 23.3646875 17.5371875 23.3646875 16.9375 21.25 C15.47002242 16.88871148 13.8481671 14.29481429 10.125 11.4375 C4.08359334 8.61817689 -1.96019376 8.59649625 -8.1875 10.6875 C-11.3984686 12.03484761 -13.27213782 13.23177564 -14.875 16.4375 C-16.12930082 19.75243789 -15.87274014 21.4472348 -15.0625 24.9375 C-12.55268117 30.0119372 -7.9550042 31.54726588 -2.875 33.4375 C1.17737526 34.76579829 5.24749873 36.03447165 9.34765625 37.20727539 C16.56482043 39.33270662 23.15801348 42.52809784 27.2109375 49.234375 C29.20947758 54.05136904 28.85146157 59.74775303 27.5078125 64.72265625 C24.73972646 71.07945561 19.685125 74.95875676 13.37890625 77.578125 C3.21255603 80.26311546 -8.58621686 79.39043507 -17.875 74.4375 C-23.07177433 71.36965633 -25.86510436 67.01469732 -27.875 61.4375 C-28.40636245 59.07092774 -28.67283372 56.86349541 -28.875 54.4375 C-25.575 54.4375 -22.275 54.4375 -18.875 54.4375 C-18.318125 55.84 -17.76125 57.2425 -17.1875 58.6875 C-15.35507649 62.75458634 -13.8538397 65.17679562 -9.875 67.4375 C-3.29941029 69.88390219 3.14171264 70.38220766 9.875 68.25 C13.42805973 66.26848592 15.14980718 64.99284708 17.125 61.4375 C17.85102777 57.68011916 17.79897422 54.5403669 15.75 51.1875 C10.067011 47.39884067 3.60603901 45.56092 -2.88867188 43.63061523 C-11.83162752 40.95951736 -19.44467013 38.47438821 -24.875 30.4375 C-27.20025989 25.78698023 -26.28475467 19.49883589 -25.875 14.4375 C-22.92742163 7.97550127 -17.39181115 3.74336927 -10.87524414 1.05493164 C-7.28058327 -0.05466159 -3.73637135 -0.05081087 0 0 Z " fill="#000000" transform="translate(1009.875,238.5625)"/>
<path d="M0 0 C2.04010098 1.55847358 3.35843581 2.98776003 5 5 C5.73552094 5.64923431 5.73552094 5.64923431 6.48590088 6.31158447 C12.65019328 13.18556442 12.55371572 24.09667718 12.390625 32.765625 C12.38496521 33.92503601 12.37930542 35.08444702 12.37347412 36.2789917 C12.35130853 39.93643715 12.30114885 43.59285697 12.25 47.25 C12.22990943 49.74868364 12.21166318 52.24738284 12.1953125 54.74609375 C12.15150899 60.83107166 12.08479857 66.91546253 12 73 C9.03 73 6.06 73 3 73 C2.970271 70.93504272 2.970271 70.93504272 2.93994141 68.82836914 C2.86350566 63.69000872 2.7748482 58.55191753 2.68261719 53.41381836 C2.64448369 51.19577372 2.60960439 48.97767054 2.578125 46.75952148 C2.53213353 43.55952111 2.47419671 40.35991842 2.4140625 37.16015625 C2.40251129 36.17854019 2.39096008 35.19692413 2.37905884 34.18556213 C2.20714127 26.04988796 1.77046563 16.33650586 -4 10 C-10.15205392 5.31780096 -16.33385148 4.25070883 -23.9453125 4.58203125 C-29.9632902 5.40546298 -33.51270906 7.54575997 -37.8125 11.75 C-44.02472258 20.97958784 -44.10396703 31.03821862 -44.31640625 41.84765625 C-44.33718735 42.74495956 -44.35796844 43.64226288 -44.37937927 44.5667572 C-44.44412226 47.39860288 -44.50340518 50.23053141 -44.5625 53.0625 C-44.60575702 54.99675294 -44.64937344 56.93099788 -44.69335938 58.86523438 C-44.79972503 63.57674067 -44.90119819 68.28832926 -45 73 C-47.97 73 -50.94 73 -54 73 C-54 47.59 -54 22.18 -54 -4 C-51.03 -4 -48.06 -4 -45 -4 C-44.67 -0.7 -44.34 2.6 -44 6 C-43.54625 5.278125 -43.0925 4.55625 -42.625 3.8125 C-31.59181297 -8.00877182 -13.23384846 -7.48354759 0 0 Z " fill="#000000" transform="translate(1236,389)"/>
<path d="M0 0 C2.04010098 1.55847358 3.35843581 2.98776003 5 5 C5.73552094 5.64923431 5.73552094 5.64923431 6.48590088 6.31158447 C12.65019328 13.18556442 12.55371572 24.09667718 12.390625 32.765625 C12.38496521 33.92503601 12.37930542 35.08444702 12.37347412 36.2789917 C12.35130853 39.93643715 12.30114885 43.59285697 12.25 47.25 C12.22990943 49.74868364 12.21166318 52.24738284 12.1953125 54.74609375 C12.15150899 60.83107166 12.08479857 66.91546253 12 73 C9.03 73 6.06 73 3 73 C2.970271 70.93504272 2.970271 70.93504272 2.93994141 68.82836914 C2.86350566 63.69000872 2.7748482 58.55191753 2.68261719 53.41381836 C2.64448369 51.19577372 2.60960439 48.97767054 2.578125 46.75952148 C2.53213353 43.55952111 2.47419671 40.35991842 2.4140625 37.16015625 C2.40251129 36.17854019 2.39096008 35.19692413 2.37905884 34.18556213 C2.20714127 26.04988796 1.77046563 16.33650586 -4 10 C-10.15205392 5.31780096 -16.33385148 4.25070883 -23.9453125 4.58203125 C-29.9632902 5.40546298 -33.51270906 7.54575997 -37.8125 11.75 C-44.02472258 20.97958784 -44.10396703 31.03821862 -44.31640625 41.84765625 C-44.33718735 42.74495956 -44.35796844 43.64226288 -44.37937927 44.5667572 C-44.44412226 47.39860288 -44.50340518 50.23053141 -44.5625 53.0625 C-44.60575702 54.99675294 -44.64937344 56.93099788 -44.69335938 58.86523438 C-44.79972503 63.57674067 -44.90119819 68.28832926 -45 73 C-47.97 73 -50.94 73 -54 73 C-54 47.59 -54 22.18 -54 -4 C-51.03 -4 -48.06 -4 -45 -4 C-44.67 -0.7 -44.34 2.6 -44 6 C-43.54625 5.278125 -43.0925 4.55625 -42.625 3.8125 C-31.59181297 -8.00877182 -13.23384846 -7.48354759 0 0 Z " fill="#000000" transform="translate(799,389)"/>
<path d="M0 0 C2.04010098 1.55847358 3.35843581 2.98776003 5 5 C5.73552094 5.64923431 5.73552094 5.64923431 6.48590088 6.31158447 C12.65019328 13.18556442 12.55371572 24.09667718 12.390625 32.765625 C12.38496521 33.92503601 12.37930542 35.08444702 12.37347412 36.2789917 C12.35130853 39.93643715 12.30114885 43.59285697 12.25 47.25 C12.22990943 49.74868364 12.21166318 52.24738284 12.1953125 54.74609375 C12.15150899 60.83107166 12.08479857 66.91546253 12 73 C9.03 73 6.06 73 3 73 C2.970271 70.93504272 2.970271 70.93504272 2.93994141 68.82836914 C2.86350566 63.69000872 2.7748482 58.55191753 2.68261719 53.41381836 C2.64448369 51.19577372 2.60960439 48.97767054 2.578125 46.75952148 C2.53213353 43.55952111 2.47419671 40.35991842 2.4140625 37.16015625 C2.40251129 36.17854019 2.39096008 35.19692413 2.37905884 34.18556213 C2.20714127 26.04988796 1.77046563 16.33650586 -4 10 C-10.15205392 5.31780096 -16.33385148 4.25070883 -23.9453125 4.58203125 C-29.9632902 5.40546298 -33.51270906 7.54575997 -37.8125 11.75 C-44.02472258 20.97958784 -44.10396703 31.03821862 -44.31640625 41.84765625 C-44.33718735 42.74495956 -44.35796844 43.64226288 -44.37937927 44.5667572 C-44.44412226 47.39860288 -44.50340518 50.23053141 -44.5625 53.0625 C-44.60575702 54.99675294 -44.64937344 56.93099788 -44.69335938 58.86523438 C-44.79972503 63.57674067 -44.90119819 68.28832926 -45 73 C-47.97 73 -50.94 73 -54 73 C-54 47.59 -54 22.18 -54 -4 C-51.03 -4 -48.06 -4 -45 -4 C-44.67 -0.7 -44.34 2.6 -44 6 C-43.54625 5.278125 -43.0925 4.55625 -42.625 3.8125 C-31.59181297 -8.00877182 -13.23384846 -7.48354759 0 0 Z " fill="#000000" transform="translate(1491,243)"/>
<path d="M0 0 C2.04010098 1.55847358 3.35843581 2.98776003 5 5 C5.73552094 5.64923431 5.73552094 5.64923431 6.48590088 6.31158447 C12.65019328 13.18556442 12.55371572 24.09667718 12.390625 32.765625 C12.38496521 33.92503601 12.37930542 35.08444702 12.37347412 36.2789917 C12.35130853 39.93643715 12.30114885 43.59285697 12.25 47.25 C12.22990943 49.74868364 12.21166318 52.24738284 12.1953125 54.74609375 C12.15150899 60.83107166 12.08479857 66.91546253 12 73 C9.03 73 6.06 73 3 73 C2.970271 70.93504272 2.970271 70.93504272 2.93994141 68.82836914 C2.86350566 63.69000872 2.7748482 58.55191753 2.68261719 53.41381836 C2.64448369 51.19577372 2.60960439 48.97767054 2.578125 46.75952148 C2.53213353 43.55952111 2.47419671 40.35991842 2.4140625 37.16015625 C2.40251129 36.17854019 2.39096008 35.19692413 2.37905884 34.18556213 C2.20714127 26.04988796 1.77046563 16.33650586 -4 10 C-10.15205392 5.31780096 -16.33385148 4.25070883 -23.9453125 4.58203125 C-29.9632902 5.40546298 -33.51270906 7.54575997 -37.8125 11.75 C-44.02472258 20.97958784 -44.10396703 31.03821862 -44.31640625 41.84765625 C-44.33718735 42.74495956 -44.35796844 43.64226288 -44.37937927 44.5667572 C-44.44412226 47.39860288 -44.50340518 50.23053141 -44.5625 53.0625 C-44.60575702 54.99675294 -44.64937344 56.93099788 -44.69335938 58.86523438 C-44.79972503 63.57674067 -44.90119819 68.28832926 -45 73 C-47.97 73 -50.94 73 -54 73 C-54 47.59 -54 22.18 -54 -4 C-51.03 -4 -48.06 -4 -45 -4 C-44.67 -0.7 -44.34 2.6 -44 6 C-43.54625 5.278125 -43.0925 4.55625 -42.625 3.8125 C-31.59181297 -8.00877182 -13.23384846 -7.48354759 0 0 Z " fill="#000000" transform="translate(960,243)"/>
<path d="M0 0 C2.97 0 5.94 0 9 0 C9 5.94 9 11.88 9 18 C16.26 18 23.52 18 31 18 C31 20.97 31 23.94 31 27 C23.74 27 16.48 27 9 27 C9.09725759 33.52905527 9.20019068 40.05752321 9.31738281 46.58618164 C9.35551631 48.80422628 9.39039561 51.02232946 9.421875 53.24047852 C9.46786647 56.44047889 9.52580329 59.64008158 9.5859375 62.83984375 C9.59748871 63.82145981 9.60903992 64.80307587 9.62094116 65.81443787 C9.7831651 74.58059402 9.7831651 74.58059402 12 83 C15.65728405 85.43818936 18.93287895 85.6716692 23.1875 86.125 C24.31188477 86.25455078 24.31188477 86.25455078 25.45898438 86.38671875 C27.30517412 86.59838382 29.15249344 86.80015464 31 87 C31 89.64 31 92.28 31 95 C28.14524694 95.08156437 25.29286435 95.14076372 22.4375 95.1875 C21.63763672 95.21263672 20.83777344 95.23777344 20.01367188 95.26367188 C14.54660149 95.33061559 10.83876313 94.59263651 6 92 C1.45816719 87.33541496 -0.25673733 82.84037013 -0.22705078 76.38354492 C-0.22682419 74.73239937 -0.22682419 74.73239937 -0.22659302 73.04789734 C-0.21110916 71.28202019 -0.21110916 71.28202019 -0.1953125 69.48046875 C-0.1924826 68.26676102 -0.18965271 67.05305328 -0.18673706 65.80256653 C-0.17555308 61.93077689 -0.1504513 58.05921959 -0.125 54.1875 C-0.11496792 51.56055022 -0.10584246 48.93359681 -0.09765625 46.30664062 C-0.07561951 39.87100439 -0.04110147 33.43554158 0 27 C-3.63 27 -7.26 27 -11 27 C-11 24.03 -11 21.06 -11 18 C-7.37 18 -3.74 18 0 18 C0 12.06 0 6.12 0 0 Z " fill="#000000" transform="translate(829,367)"/>
<path d="M0 0 C2.97 0 5.94 0 9 0 C9 5.94 9 11.88 9 18 C16.26 18 23.52 18 31 18 C31 20.97 31 23.94 31 27 C23.74 27 16.48 27 9 27 C9.09725759 33.52905527 9.20019068 40.05752321 9.31738281 46.58618164 C9.35551631 48.80422628 9.39039561 51.02232946 9.421875 53.24047852 C9.46786647 56.44047889 9.52580329 59.64008158 9.5859375 62.83984375 C9.59748871 63.82145981 9.60903992 64.80307587 9.62094116 65.81443787 C9.7831651 74.58059402 9.7831651 74.58059402 12 83 C15.65728405 85.43818936 18.93287895 85.6716692 23.1875 86.125 C24.31188477 86.25455078 24.31188477 86.25455078 25.45898438 86.38671875 C27.30517412 86.59838382 29.15249344 86.80015464 31 87 C31 89.64 31 92.28 31 95 C28.14524694 95.08156437 25.29286435 95.14076372 22.4375 95.1875 C21.63763672 95.21263672 20.83777344 95.23777344 20.01367188 95.26367188 C14.54660149 95.33061559 10.83876313 94.59263651 6 92 C1.45816719 87.33541496 -0.25673733 82.84037013 -0.22705078 76.38354492 C-0.22682419 74.73239937 -0.22682419 74.73239937 -0.22659302 73.04789734 C-0.21110916 71.28202019 -0.21110916 71.28202019 -0.1953125 69.48046875 C-0.1924826 68.26676102 -0.18965271 67.05305328 -0.18673706 65.80256653 C-0.17555308 61.93077689 -0.1504513 58.05921959 -0.125 54.1875 C-0.11496792 51.56055022 -0.10584246 48.93359681 -0.09765625 46.30664062 C-0.07561951 39.87100439 -0.04110147 33.43554158 0 27 C-3.63 27 -7.26 27 -11 27 C-11 24.03 -11 21.06 -11 18 C-7.37 18 -3.74 18 0 18 C0 12.06 0 6.12 0 0 Z " fill="#000000" transform="translate(1293,221)"/>
<path d="M0 0 C2.97 0 5.94 0 9 0 C9 5.94 9 11.88 9 18 C16.26 18 23.52 18 31 18 C31 20.97 31 23.94 31 27 C23.74 27 16.48 27 9 27 C9.09725759 33.52905527 9.20019068 40.05752321 9.31738281 46.58618164 C9.35551631 48.80422628 9.39039561 51.02232946 9.421875 53.24047852 C9.46786647 56.44047889 9.52580329 59.64008158 9.5859375 62.83984375 C9.59748871 63.82145981 9.60903992 64.80307587 9.62094116 65.81443787 C9.7831651 74.58059402 9.7831651 74.58059402 12 83 C15.65728405 85.43818936 18.93287895 85.6716692 23.1875 86.125 C24.31188477 86.25455078 24.31188477 86.25455078 25.45898438 86.38671875 C27.30517412 86.59838382 29.15249344 86.80015464 31 87 C31 89.64 31 92.28 31 95 C28.14524694 95.08156437 25.29286435 95.14076372 22.4375 95.1875 C21.63763672 95.21263672 20.83777344 95.23777344 20.01367188 95.26367188 C14.54660149 95.33061559 10.83876313 94.59263651 6 92 C1.45816719 87.33541496 -0.25673733 82.84037013 -0.22705078 76.38354492 C-0.22682419 74.73239937 -0.22682419 74.73239937 -0.22659302 73.04789734 C-0.21110916 71.28202019 -0.21110916 71.28202019 -0.1953125 69.48046875 C-0.1924826 68.26676102 -0.18965271 67.05305328 -0.18673706 65.80256653 C-0.17555308 61.93077689 -0.1504513 58.05921959 -0.125 54.1875 C-0.11496792 51.56055022 -0.10584246 48.93359681 -0.09765625 46.30664062 C-0.07561951 39.87100439 -0.04110147 33.43554158 0 27 C-3.63 27 -7.26 27 -11 27 C-11 24.03 -11 21.06 -11 18 C-7.37 18 -3.74 18 0 18 C0 12.06 0 6.12 0 0 Z " fill="#000000" transform="translate(1051,221)"/>
<path d="M0 0 C0 3.3 0 6.6 0 10 C-1.39412109 10.14695313 -1.39412109 10.14695313 -2.81640625 10.296875 C-12.6609454 11.28085503 -12.6609454 11.28085503 -21 16 C-27.19992394 25.03138527 -27.11839854 34.69171405 -27.31640625 45.28515625 C-27.33718735 46.22685165 -27.35796844 47.16854706 -27.37937927 48.13877869 C-27.44416778 51.11328645 -27.50342701 54.0878738 -27.5625 57.0625 C-27.60575265 59.09310681 -27.64936896 61.12370591 -27.69335938 63.15429688 C-27.79977543 68.10278541 -27.90123666 73.05135306 -28 78 C-30.97 78 -33.94 78 -37 78 C-37 52.59 -37 27.18 -37 1 C-34.03 1 -31.06 1 -28 1 C-27.67 3.97 -27.34 6.94 -27 10 C-26.01 8.88625 -26.01 8.88625 -25 7.75 C-17.94822948 0.71820617 -9.51197633 -0.16399959 0 0 Z " fill="#000000" transform="translate(1127,238)"/>
<path d="M0 0 C0 3.3 0 6.6 0 10 C-1.39412109 10.14695312 -1.39412109 10.14695312 -2.81640625 10.296875 C-12.6609454 11.28085503 -12.6609454 11.28085503 -21 16 C-27.19992394 25.03138527 -27.11839854 34.69171405 -27.31640625 45.28515625 C-27.33718735 46.22685165 -27.35796844 47.16854706 -27.37937927 48.13877869 C-27.44416778 51.11328645 -27.50342701 54.0878738 -27.5625 57.0625 C-27.60575265 59.09310681 -27.64936896 61.12370591 -27.69335938 63.15429688 C-27.79977543 68.10278541 -27.90123666 73.05135306 -28 78 C-30.97 78 -33.94 78 -37 78 C-37 52.59 -37 27.18 -37 1 C-34.03 1 -31.06 1 -28 1 C-27.67 3.97 -27.34 6.94 -27 10 C-26.01 8.88625 -26.01 8.88625 -25 7.75 C-17.94822948 0.71820617 -9.51197633 -0.16399959 0 0 Z " fill="#000000" transform="translate(1167,92)"/>
<path d="M0 0 C2.97 0 5.94 0 9 0 C9 33.99 9 67.98 9 103 C6.03 103 3.06 103 0 103 C0 69.01 0 35.02 0 0 Z " fill="#000000" transform="translate(970,359)"/>
<path d="M0 0 C2.97 0 5.94 0 9 0 C9 33.99 9 67.98 9 103 C6.03 103 3.06 103 0 103 C0 69.01 0 35.02 0 0 Z " fill="#000000" transform="translate(948,359)"/>
<path d="M0 0 C2.97 0 5.94 0 9 0 C9 32.34 9 64.68 9 98 C6.03 98 3.06 98 0 98 C0 65.66 0 33.32 0 0 Z " fill="#000000" transform="translate(721,364)"/>
<path d="M0 0 C2.97 0 5.94 0 9 0 C9 25.41 9 50.82 9 77 C6.03 77 3.06 77 0 77 C0 51.59 0 26.18 0 0 Z " fill="#000000" transform="translate(993,385)"/>
<path d="M0 0 C2.97 0 5.94 0 9 0 C9 25.41 9 50.82 9 77 C6.03 77 3.06 77 0 77 C0 51.59 0 26.18 0 0 Z " fill="#000000" transform="translate(1332,239)"/>
<path d="M0 0 C2.97 0 5.94 0 9 0 C9 25.41 9 50.82 9 77 C6.03 77 3.06 77 0 77 C0 51.59 0 26.18 0 0 Z " fill="#000000" transform="translate(1172,93)"/>
<path d="M0 0 C3 2 3 2 3.8125 4.875 C4.00583978 8.09732959 3.83094313 9.39813344 2 12 C-1.04983996 13.52491998 -3.6423369 13.23562548 -7 13 C-8.9375 11.9375 -8.9375 11.9375 -10 10 C-10.36528977 6.5906288 -10.6140629 4.11976176 -8.9375 1.0625 C-5.91362524 -0.5957539 -3.37613017 -0.30144019 0 0 Z " fill="#000000" transform="translate(1001,359)"/>
<path d="M0 0 C3 2 3 2 3.8125 4.875 C4.00583978 8.09732959 3.83094313 9.39813344 2 12 C-1.04983996 13.52491998 -3.6423369 13.23562548 -7 13 C-8.9375 11.9375 -8.9375 11.9375 -10 10 C-10.36528977 6.5906288 -10.6140629 4.11976176 -8.9375 1.0625 C-5.91362524 -0.5957539 -3.37613017 -0.30144019 0 0 Z " fill="#000000" transform="translate(1340,213)"/>
<path d="M0 0 C3 2 3 2 3.8125 4.875 C4.00583978 8.09732959 3.83094313 9.39813344 2 12 C-1.04983996 13.52491998 -3.6423369 13.23562548 -7 13 C-8.9375 11.9375 -8.9375 11.9375 -10 10 C-10.36528977 6.5906288 -10.6140629 4.11976176 -8.9375 1.0625 C-5.91362524 -0.5957539 -3.37613017 -0.30144019 0 0 Z " fill="#000000" transform="translate(1180,67)"/>
</svg>
