<?xml version="1.0" encoding="UTF-8"?>
<svg version="1.1" xmlns="http://www.w3.org/2000/svg" width="1163" height="155">
<path d="M0 0 C383.79 0 767.58 0 1163 0 C1163 51.15 1163 102.3 1163 155 C779.21 155 395.42 155 0 155 C0 103.85 0 52.7 0 0 Z " fill="#FCFCFC" transform="translate(0,0)"/>
<path d="M0 0 C1.95572406 0.00103937 3.91145023 -0.0000044 5.86717224 -0.00302124 C9.94977345 -0.00284263 14.03157795 0.01784464 18.11401367 0.05419922 C23.3245935 0.09960244 28.53401334 0.10064786 33.74473667 0.08716393 C37.77790992 0.08045447 41.81082277 0.09379973 45.84394646 0.11342239 C47.76430839 0.12107304 49.68469941 0.12344517 51.60507393 0.1202507 C72.89271096 0.11432784 72.89271096 0.11432784 80.90992737 6.36483765 C82.7410821 7.96758051 82.7410821 7.96758051 85.18359375 7.6640625 C87.96207156 6.79866591 87.96207156 6.79866591 90.62109375 4.7890625 C96.74546865 0.82623168 103.23246817 0.42647885 110.32910156 0.42016602 C111.14004776 0.4118425 111.95099396 0.40351898 112.78651428 0.39494324 C115.44496585 0.37101546 118.1031712 0.36209205 120.76171875 0.35546875 C122.62725898 0.34648883 124.49279853 0.33736676 126.3583374 0.32810974 C130.26185854 0.31166357 134.16529437 0.30392771 138.06884766 0.30102539 C143.04279421 0.29564837 148.01592611 0.25797744 152.9896431 0.21228123 C156.84182583 0.18237079 160.69381573 0.1752988 164.54610443 0.17429924 C166.37834145 0.17012412 168.21058051 0.15780021 170.04270172 0.13678169 C182.40052024 0.00629569 192.70320747 0.72724265 202.80859375 8.7265625 C203.69611328 8.11167969 203.69611328 8.11167969 204.6015625 7.484375 C205.78685547 6.67613281 205.78685547 6.67613281 206.99609375 5.8515625 C207.77339844 5.31789063 208.55070313 4.78421875 209.3515625 4.234375 C214.49303983 1.07919177 218.83606359 0.42871723 224.80493164 0.43603516 C225.59593262 0.42931793 226.38693359 0.42260071 227.2019043 0.41567993 C229.81175057 0.39671682 232.42133914 0.39277573 235.03125 0.390625 C236.85623783 0.38419281 238.68122463 0.37746413 240.50621033 0.37045288 C244.33351019 0.3584821 248.16071985 0.35477154 251.98803711 0.35595703 C256.86443664 0.3561595 261.74024864 0.32893166 266.61650944 0.29441261 C270.38891693 0.27203632 274.16118585 0.26812286 277.93365288 0.26917648 C279.72958831 0.26683378 281.52552835 0.25808626 283.32139778 0.24251175 C295.04942032 0.15037591 306.44069457 0.22194578 316.18359375 7.7265625 C324.15478326 15.64109762 326.43902652 24.50199216 326.58777428 35.36353016 C326.59106345 38.04103794 326.56446756 40.71719652 326.53515625 43.39453125 C326.5341166 45.28396096 326.53516144 47.17339285 326.53817749 49.06282043 C326.53799907 53.00241841 326.51734796 56.94118911 326.48095703 60.88061523 C326.4354904 65.91079506 326.43452183 70.93977422 326.44799232 75.97010326 C326.45469713 79.86426833 326.44136629 83.7581633 326.42173386 87.65227699 C326.41407999 89.50647885 326.41171245 91.36071086 326.41490555 93.21492577 C326.42018862 111.55126881 326.42018862 111.55126881 321.80859375 118.7265625 C321.44085846 119.37308273 321.07312317 120.01960297 320.69424438 120.68571472 C316.99724689 127.00807498 310.42920025 130.51140981 303.65409851 132.78527832 C299.56915447 133.7851713 295.76073398 134.03607658 291.58520508 134.04882812 C290.39826553 134.06372284 290.39826553 134.06372284 289.18734741 134.07891846 C286.58840356 134.10795219 283.9897039 134.12173098 281.390625 134.1328125 C280.49631964 134.13846725 279.60201427 134.14412201 278.68060875 134.14994812 C273.94648448 134.17985066 269.21248078 134.19835992 264.47827148 134.20703125 C259.61737275 134.21798013 254.75760026 134.26601243 249.89705372 134.32297516 C246.13322345 134.360444 242.3696585 134.37065048 238.60565758 134.373703 C236.81526226 134.37971015 235.02486901 134.39561023 233.23465919 134.42207336 C223.41340237 134.55687523 215.82798707 134.34029044 207.15336609 129.11364746 C204.95019547 127.81032911 203.33589226 127.05294973 200.80859375 126.7265625 C198.25235363 127.87831328 198.25235363 127.87831328 195.74609375 129.6015625 C190.18654889 133.19645617 186.17655913 133.8784075 179.62451172 133.88769531 C178.78996964 133.89266022 177.95542755 133.89762512 177.09559631 133.90274048 C174.33064958 133.91736102 171.56576031 133.92416546 168.80078125 133.9296875 C166.8760681 133.93544095 164.95135497 133.94119866 163.02664185 133.94696045 C158.98650852 133.95747144 154.94639508 133.96331284 150.90625 133.96679688 C145.74488846 133.97226861 140.58379247 133.99626791 135.42251396 134.02476883 C131.44350434 134.04345542 127.46455775 134.04860411 123.48550797 134.05013275 C121.58382853 134.05314842 119.68214993 134.06114003 117.78051376 134.07431793 C115.10982266 134.09149749 112.4397679 134.08946887 109.76904297 134.08300781 C108.99259933 134.0922226 108.2161557 134.10143738 107.41618347 134.1109314 C98.75760845 134.04577396 92.09360395 131.68926449 85.80859375 125.7265625 C82.14153042 127.51435982 78.64321607 129.5434882 75.125 131.60546875 C70.12095659 134.0273245 64.90595504 133.89430493 59.44506836 133.93530273 C58.6150531 133.94508652 57.78503784 133.9548703 56.92987061 133.96495056 C54.19024226 133.99479563 51.4506625 134.01626351 48.7109375 134.03515625 C47.77066774 134.04172808 46.83039799 134.0482999 45.86163521 134.05507088 C40.88116078 134.08762193 35.9007073 134.11207934 30.92016602 134.1315918 C26.81633052 134.14937102 22.7131865 134.18414323 18.60961914 134.23413086 C13.6370709 134.2946183 8.66516122 134.32510647 3.69226265 134.33476448 C1.80695722 134.34327364 -0.07833324 134.36197824 -1.96342659 134.3915081 C-13.93854876 134.56894909 -24.00210044 134.19318488 -33.41004944 125.73094177 C-43.34049315 115.60247271 -42.78828914 104.3487462 -42.72265625 91.1328125 C-42.72535479 89.21667281 -42.72924022 87.30053445 -42.73425293 85.38439941 C-42.74013092 81.37999356 -42.73163998 77.37594604 -42.71289062 73.37158203 C-42.69010216 68.25730104 -42.70323438 63.14385991 -42.72718048 58.02960968 C-42.7416845 54.07629145 -42.73701141 50.12316997 -42.72666931 46.16984558 C-42.72401474 44.28492634 -42.72722676 42.39998881 -42.73658752 40.51509094 C-42.7846806 28.1110219 -42.59677668 18.14650079 -33.34495544 8.72177124 C-23.34956041 -0.53870889 -12.83268148 -0.1353605 0 0 Z " fill="#FDA051" transform="translate(50.19140625,12.2734375)"/>
<path d="M0 0 C1.95572406 0.00103937 3.91145023 -0.0000044 5.86717224 -0.00302124 C9.94977345 -0.00284263 14.03157795 0.01784464 18.11401367 0.05419922 C23.3245935 0.09960244 28.53401334 0.10064786 33.74473667 0.08716393 C37.77790992 0.08045447 41.81082277 0.09379973 45.84394646 0.11342239 C47.76430839 0.12107304 49.68469941 0.12344517 51.60507393 0.1202507 C74.58069627 0.11385819 74.58069627 0.11385819 83.80859375 8.7265625 C83.36649915 11.60017741 82.58012516 13.0508405 80.87109375 15.4765625 C77.00739664 21.56481249 76.50992531 27.89001368 76.54980469 34.95922852 C76.54630005 35.73919189 76.54279541 36.51915527 76.53918457 37.32275391 C76.53045338 39.87541873 76.53618511 42.4278016 76.54296875 44.98046875 C76.54161976 46.768306 76.53967728 48.55614288 76.53717041 50.34397888 C76.53423093 54.08018507 76.53847935 57.81629526 76.54785156 61.55249023 C76.55925367 66.32936258 76.55267435 71.10601034 76.54070663 75.88287449 C76.53346329 79.57099587 76.53578718 83.25906441 76.54096222 86.94718742 C76.54229144 88.70816004 76.54067662 90.46913753 76.53600311 92.23010445 C76.53089615 94.69462844 76.53870593 97.15879359 76.54980469 99.62329102 C76.54575623 100.34296555 76.54170776 101.06264008 76.53753662 101.80412292 C76.60037403 109.37636765 78.52545554 114.80537698 82.8828125 120.83203125 C83.80859375 122.7265625 83.80859375 122.7265625 83.609375 124.8359375 C82.03797743 128.54596883 78.35298384 130.08571082 74.80804157 131.55670071 C69.41674446 133.45667821 64.68751848 134.17251323 58.9909668 134.16235352 C58.16036743 134.17242935 57.32976807 134.18250519 56.47399902 134.19288635 C53.75596274 134.22114477 51.0384861 134.22723151 48.3203125 134.23046875 C46.41135947 134.24012495 44.50240861 134.25021852 42.59346008 134.26072693 C38.60172382 134.27863285 34.61018176 134.28425365 30.6184082 134.2824707 C25.5310983 134.28216611 20.4450471 134.32312088 15.35803509 134.37478733 C11.41746932 134.40832363 7.47720236 134.41422302 3.53650856 134.41264153 C1.66239903 134.41615547 -0.21172043 134.42927645 -2.08568764 134.45263863 C-14.00420824 134.58732637 -24.05169647 134.14610105 -33.41059875 125.73121643 C-43.33913901 115.6000338 -42.7882965 104.35022894 -42.72265625 91.1328125 C-42.72535479 89.21667281 -42.72924022 87.30053445 -42.73425293 85.38439941 C-42.74013092 81.37999356 -42.73163998 77.37594604 -42.71289062 73.37158203 C-42.69010216 68.25730104 -42.70323438 63.14385991 -42.72718048 58.02960968 C-42.7416845 54.07629145 -42.73701141 50.12316997 -42.72666931 46.16984558 C-42.72401474 44.28492634 -42.72722676 42.39998881 -42.73658752 40.51509094 C-42.7846806 28.1110219 -42.59677668 18.14650079 -33.34495544 8.72177124 C-23.34956041 -0.53870889 -12.83268148 -0.1353605 0 0 Z " fill="#E4510E" transform="translate(50.19140625,12.2734375)"/>
<path d="M0 0 C0.79100098 -0.00671722 1.58200195 -0.01343445 2.39697266 -0.02035522 C5.00681893 -0.03931834 7.6164075 -0.04325943 10.22631836 -0.04541016 C12.05130619 -0.05184235 13.87629299 -0.05857102 15.70127869 -0.06558228 C19.52857855 -0.07755305 23.35578821 -0.08126361 27.18310547 -0.08007812 C32.059505 -0.07987566 36.935317 -0.10710349 41.8115778 -0.14162254 C45.58398529 -0.16399883 49.35625421 -0.1679123 53.12872124 -0.16685867 C54.92465667 -0.16920138 56.72059671 -0.17794889 58.51646614 -0.19352341 C70.24448868 -0.28565925 81.63576293 -0.21408937 91.37866211 7.29052734 C99.34985162 15.20506246 101.63409488 24.06595701 101.78284264 34.927495 C101.7861318 37.60500278 101.75953592 40.28116137 101.73022461 42.95849609 C101.72918496 44.8479258 101.7302298 46.73735769 101.73324585 48.62678528 C101.73306743 52.56638325 101.71241632 56.50515396 101.67602539 60.44458008 C101.63055876 65.4747599 101.62959019 70.50373907 101.64306068 75.53406811 C101.64976549 79.42823317 101.63643465 83.32212815 101.61680222 87.21624184 C101.60914835 89.07044369 101.60678081 90.9246757 101.60997391 92.77889061 C101.61525698 111.11523366 101.61525698 111.11523366 97.00366211 118.29052734 C96.63592682 118.93704758 96.26819153 119.58356781 95.88931274 120.24967957 C92.19231525 126.57203982 85.62426861 130.07537465 78.84916687 132.34924316 C74.76422283 133.34913614 70.95580234 133.60004142 66.78027344 133.61279297 C65.59333389 133.62768768 65.59333389 133.62768768 64.38241577 133.6428833 C61.78347192 133.67191703 59.18477226 133.68569582 56.58569336 133.69677734 C55.691388 133.7024321 54.79708263 133.70808685 53.87567711 133.71391296 C49.14155284 133.7438155 44.40754914 133.76232476 39.67333984 133.77099609 C34.81244111 133.78194498 29.95266862 133.82997728 25.09212208 133.88694 C21.32829181 133.92440885 17.56472686 133.93461532 13.80072594 133.93766785 C12.01033062 133.94367499 10.21993737 133.95957507 8.42972755 133.98603821 C-1.99315689 134.12909772 -11.35161869 134.04738425 -19.99633789 127.29052734 C-21.30461121 125.08996582 -21.30461121 125.08996582 -21.99633789 123.29052734 C-21.38145508 122.54609375 -21.38145508 122.54609375 -20.75415039 121.78662109 C-19.9459082 120.76761719 -19.9459082 120.76761719 -19.12133789 119.72802734 C-18.58766602 119.06673828 -18.05399414 118.40544922 -17.50415039 117.72412109 C-14.03390662 112.1231836 -13.69557368 106.24047449 -13.68994141 99.85180664 C-13.68161789 99.03779388 -13.67329437 98.22378113 -13.66471863 97.38510132 C-13.6407529 94.71159998 -13.63186314 92.03834324 -13.62524414 89.36474609 C-13.61626775 87.49298535 -13.60714573 85.6212253 -13.59788513 83.74946594 C-13.58142915 79.83157615 -13.57370119 75.91377147 -13.57080078 71.99584961 C-13.5654199 66.99589649 -13.52773733 61.99675234 -13.48205662 56.9970274 C-13.45219418 53.13205603 -13.44507524 49.26727737 -13.44407463 45.4022007 C-13.43989073 43.55993761 -13.42753063 41.71767297 -13.40655708 39.87552452 C-13.10853681 25.81188479 -13.10853681 25.81188479 -18.99633789 13.29052734 C-19.65633789 12.63052734 -20.31633789 11.97052734 -20.99633789 11.29052734 C-20.99633789 9.97052734 -20.99633789 8.65052734 -20.99633789 7.29052734 C-19.42211914 5.87646484 -19.42211914 5.87646484 -17.30883789 4.66552734 C-16.6243457 4.26076172 -15.93985352 3.85599609 -15.23461914 3.43896484 C-10.05129898 0.77946026 -5.81417049 -0.00712827 0 0 Z " fill="#2C3A42" transform="translate(274.996337890625,12.70947265625)"/>
<path d="M0 0 C2.74519945 1.83013297 4.69655305 3.59185092 7 6 C7 6.66 7 7.32 7 8 C7.60585938 7.46890625 8.21171875 6.9378125 8.8359375 6.390625 C20.49621304 -3.43988422 30.12314284 -5.16400222 45 -4 C54.66031751 -3.00348667 60.59619765 1.88226023 67 9 C73.28051393 18.46827653 73.42938632 29.27965872 73.29296875 40.296875 C73.28872391 41.61165833 73.28447906 42.92644165 73.28010559 44.28106689 C73.26879051 47.73345875 73.23944324 51.18545647 73.20599365 54.63769531 C73.17500037 58.17768018 73.16153854 61.71773033 73.14648438 65.2578125 C73.1145566 72.17205072 73.06190251 79.08596571 73 86 C65.08 86 57.16 86 49 86 C48.9906543 84.30472168 48.98130859 82.60944336 48.97167969 80.86279297 C48.9360855 75.24672646 48.88224544 69.63103088 48.81609726 64.01524162 C48.77667324 60.61203017 48.74446046 57.20907546 48.72900391 53.80566406 C48.71089175 49.88833753 48.66091782 45.97172241 48.609375 42.0546875 C48.60814636 40.83884979 48.60691772 39.62301208 48.60565186 38.37033081 C48.49509796 31.97474851 48.37945086 27.82264563 44 23 C40.18069828 19.37166337 37.11720994 18.68999542 32 18.5 C26.87729347 18.70287947 23.74407512 19.25592488 20 23 C15.63737574 29.91100828 15.39914353 35.75759755 15.390625 43.8125 C15.37408875 45.02196289 15.35755249 46.23142578 15.34051514 47.47753906 C15.29215659 51.31841168 15.27068994 55.15888864 15.25 59 C15.22183036 61.61330102 15.19190155 64.22658372 15.16015625 66.83984375 C15.08640006 73.22652993 15.03675061 79.61299802 15 86 C7.41 86 -0.18 86 -8 86 C-8.01458252 84.33501465 -8.02916504 82.6700293 -8.04418945 80.95458984 C-8.10220949 74.77077883 -8.17944325 68.58733052 -8.26245117 62.40380859 C-8.29732002 59.72863786 -8.32371881 57.05376362 -8.34643555 54.37841797 C-8.38001267 50.53062212 -8.43233279 46.68346511 -8.48828125 42.8359375 C-8.49467117 41.64197357 -8.5010611 40.44800964 -8.50764465 39.21786499 C-8.60718002 31.17805298 -8.60718002 31.17805298 -12 24 C-17.40758863 19.119981 -20.85838467 18.64094958 -28.015625 18.7265625 C-32.07753773 19.09872728 -34.08460596 20.15749081 -37 23 C-41.74424992 29.36995935 -41.60134943 35.168226 -41.609375 42.93359375 C-41.62591125 44.16666763 -41.64244751 45.39974152 -41.65948486 46.67018127 C-41.7079101 50.59267181 -41.72932498 54.51477474 -41.75 58.4375 C-41.77597377 61.10357405 -41.80809182 63.76953021 -41.83984375 66.43554688 C-41.91366849 72.95699935 -41.96327729 79.47823733 -42 86 C-49.59 86 -57.18 86 -65 86 C-65 56.96 -65 27.92 -65 -2 C-57.41 -2 -49.82 -2 -42 -2 C-41.67 -0.35 -41.34 1.3 -41 3 C-39.989375 2.21625 -38.97875 1.4325 -37.9375 0.625 C-27.61070927 -7.38353158 -11.0627653 -5.4320165 0 0 Z " fill="#2F3C44" transform="translate(711,51)"/>
<path d="M0 0 C0.598125 0.5775 1.19625 1.155 1.8125 1.75 C2.1425 -0.56 2.4725 -2.87 2.8125 -5.25 C10.7325 -5.25 18.6525 -5.25 26.8125 -5.25 C26.8125 24.12 26.8125 53.49 26.8125 83.75 C18.8925 83.75 10.9725 83.75 2.8125 83.75 C2.8125 81.44 2.8125 79.13 2.8125 76.75 C2.23242188 77.15992188 1.65234375 77.56984375 1.0546875 77.9921875 C0.27351562 78.53101563 -0.50765625 79.06984375 -1.3125 79.625 C-2.07820312 80.15867187 -2.84390625 80.69234375 -3.6328125 81.2421875 C-12.57676188 86.52103224 -26.32597615 86.73400371 -36.30029297 84.21679688 C-47.11169974 80.23898779 -54.97238572 71.73417818 -60.30859375 61.75390625 C-65.35955142 50.23772276 -66.72659219 34.09092312 -62.28515625 22.109375 C-56.26916971 9.17821531 -48.75711535 -0.01536361 -35.1875 -5.25 C-23.34315005 -8.36063736 -10.06219756 -7.10272769 0 0 Z " fill="#2F3D45" transform="translate(604.1875,53.25)"/>
<path d="M0 0 C2.54181816 1.95819828 4.92045432 3.99917429 7.2734375 6.1796875 C8.21123047 7.03626953 8.21123047 7.03626953 9.16796875 7.91015625 C13.34094392 12.17732951 16.01701615 17.09590299 18.7109375 22.3671875 C19.06559082 23.05683594 19.42024414 23.74648438 19.78564453 24.45703125 C21.59653688 28.16688912 22.74157837 30.94999366 22.2734375 35.1796875 C19.89863381 35.65464824 17.52375939 36.12919735 15.1484375 36.6015625 C13.27180087 36.97892965 11.39669274 37.36400316 9.5234375 37.7578125 C8.6571875 37.93828125 7.7909375 38.11875 6.8984375 38.3046875 C5.71121094 38.55605469 5.71121094 38.55605469 4.5 38.8125 C2.2734375 39.1796875 2.2734375 39.1796875 -1.7265625 39.1796875 C-2.05527344 38.39464844 -2.38398438 37.60960937 -2.72265625 36.80078125 C-6.16549393 29.19668177 -9.61107388 24.55144371 -16.7265625 20.1796875 C-17.79261719 19.468125 -18.85867188 18.7565625 -19.95703125 18.0234375 C-24.11946911 15.67972501 -27.90334436 15.56577329 -32.6015625 15.6796875 C-33.39804199 15.69177246 -34.19452148 15.70385742 -35.01513672 15.71630859 C-40.98845682 15.91823398 -45.68991685 16.80796214 -50.7265625 20.1796875 C-51.41878906 20.61539063 -52.11101562 21.05109375 -52.82421875 21.5 C-61.16071743 27.20310003 -65.33081638 33.62050693 -67.25390625 43.546875 C-68.94043185 56.50942709 -68.38734179 68.0045965 -60.5390625 78.9921875 C-54.19926031 86.56736871 -46.80855428 90.52285765 -36.96484375 91.5859375 C-26.58789869 91.83374514 -18.67727933 90.42841414 -10.57421875 83.28125 C-6.61299545 79.04366229 -4.08074176 74.45304904 -1.7265625 69.1796875 C6.45431956 69.7263363 14.29129689 71.35092618 22.2734375 73.1796875 C21.43634343 84.89900452 13.82469722 95.67822594 5.359375 103.5078125 C-7.41323289 113.74503381 -23.4806456 118.40249845 -39.7265625 117.1796875 C-54.94748748 115.25483089 -65.96024088 110.08131299 -76.7265625 99.1796875 C-77.28988281 98.63828125 -77.85320312 98.096875 -78.43359375 97.5390625 C-89.83131767 85.63009503 -94.35797031 68.12516996 -94.19946289 52.13305664 C-93.6037647 34.17977877 -87.28777118 19.20256388 -74.7265625 6.1796875 C-67.98719147 0.24067363 -61.27208793 -4.07798829 -52.7265625 -6.8203125 C-51.96214844 -7.11679688 -51.19773437 -7.41328125 -50.41015625 -7.71875 C-34.36831137 -13.48007156 -13.97934349 -9.33291414 0 0 Z " fill="#2F3C44" transform="translate(511.7265625,21.8203125)"/>
<path d="M0 0 C9.92686592 7.10330298 15.92154594 16.3577297 18.3125 28.3125 C18.3125 34.5825 18.3125 40.8525 18.3125 47.3125 C-1.8175 47.3125 -21.9475 47.3125 -42.6875 47.3125 C-40.47814332 53.94057005 -38.44588779 59.27363112 -31.94140625 62.6171875 C-25.82885378 64.50286227 -18.31949483 64.62598667 -12.5625 61.625 C-9.74246022 59.35670713 -8.22340642 57.56500772 -6.6875 54.3125 C0.82181455 56.2297718 8.07053759 58.55299015 15.3125 61.3125 C11.41851572 71.76286711 4.52825165 76.91142834 -5 82.125 C-15.31934959 86.68471261 -32.17277092 86.34273119 -42.5625 82.375 C-53.78162343 76.51795762 -61.82663101 67.13763426 -66.0625 55.3125 C-69.94135477 41.45249174 -68.42678292 27.42603083 -62 14.625 C-56.02546567 4.34528651 -47.58429894 -1.97790506 -36.36328125 -5.828125 C-23.47576346 -8.84114723 -11.26520962 -6.86623133 0 0 Z " fill="#2F3C44" transform="translate(860.6875,53.6875)"/>
<path d="M0 0 C7.42642887 4.9057384 11.89469921 11.2796044 14.54759216 19.74798584 C15.12952833 22.64477142 15.11934337 25.3735667 15.11352539 28.32910156 C15.11341209 30.25064056 15.11341209 30.25064056 15.11329651 32.21099854 C15.10819026 33.60420775 15.10297427 34.99741657 15.09765625 36.390625 C15.09579032 37.81980337 15.09436724 39.24898238 15.09336853 40.67816162 C15.08955715 44.43300148 15.07973867 48.18780243 15.06866455 51.94262695 C15.05842075 55.77685012 15.05386455 59.61107959 15.04882812 63.4453125 C15.03811513 70.96356143 15.02052953 78.4817703 15 86 C7.08 86 -0.84 86 -9 86 C-9.05607422 80.30943359 -9.05607422 80.30943359 -9.11328125 74.50390625 C-9.15955545 70.81024568 -9.21076784 67.11668408 -9.26245117 63.4230957 C-9.29560736 60.86554022 -9.32366795 58.3079132 -9.34643555 55.75024414 C-9.38015215 52.06365614 -9.43247855 48.37771821 -9.48828125 44.69140625 C-9.49467117 43.55667374 -9.5010611 42.42194122 -9.50764465 41.25282288 C-9.62446603 34.87626566 -9.96337489 28.74328437 -13 23 C-17.69148602 19.07447088 -21.58223638 18.40934728 -27.63671875 18.67578125 C-32.91952414 19.40052976 -36.66012644 21.94443925 -40 26 C-41.74157851 29.64763591 -42.26332207 32.59085039 -42.31884766 36.61645508 C-42.33871735 37.71721878 -42.35858704 38.81798248 -42.37905884 39.95210266 C-42.39061005 41.1293541 -42.40216125 42.30660553 -42.4140625 43.51953125 C-42.43342865 44.73323898 -42.4527948 45.94694672 -42.4727478 47.19743347 C-42.53246571 51.06905111 -42.57889855 54.94069861 -42.625 58.8125 C-42.66318688 61.439466 -42.70223902 64.06641957 -42.7421875 66.69335938 C-42.83816116 73.12880518 -42.92222158 79.5643096 -43 86 C-50.59 86 -58.18 86 -66 86 C-66 56.96 -66 27.92 -66 -2 C-58.74 -2 -51.48 -2 -44 -2 C-44 0.31 -44 2.62 -44 5 C-43.35933594 4.51789062 -42.71867188 4.03578125 -42.05859375 3.5390625 C-40.76115234 2.59160156 -40.76115234 2.59160156 -39.4375 1.625 C-38.59058594 0.99851562 -37.74367188 0.37203125 -36.87109375 -0.2734375 C-26.07098886 -6.76819445 -10.95851363 -5.56573002 0 0 Z " fill="#303D45" transform="translate(956,51)"/>
<path d="M0 0 C6.15706195 3.47141017 11.07948266 8.47870929 14.30078125 14.78125 C14.86328125 16.96875 14.86328125 16.96875 14.86328125 19.96875 C12.32369755 20.64436372 9.7820929 21.30940828 7.23828125 21.96875 C6.52542969 22.15953125 5.81257813 22.3503125 5.078125 22.546875 C0.9437972 23.60890416 -2.83436972 24.42027089 -7.13671875 23.96875 C-9.19921875 21.59375 -9.19921875 21.59375 -11.13671875 18.96875 C-15.44630515 16.38299816 -20.24933584 16.4023617 -25.13671875 16.96875 C-27.7354119 17.83299561 -27.7354119 17.83299561 -29.13671875 19.96875 C-29.94986786 23.57340748 -29.94986786 23.57340748 -30.13671875 26.96875 C-29.5746875 27.11570312 -29.01265625 27.26265625 -28.43359375 27.4140625 C-25.32802553 28.24284911 -22.23238857 29.10364102 -19.13671875 29.96875 C-18.3595752 30.18337891 -17.58243164 30.39800781 -16.78173828 30.61914062 C-14.16680937 31.34692992 -11.55787715 32.09382076 -8.94921875 32.84375 C-8.10649414 33.07594238 -7.26376953 33.30813477 -6.39550781 33.54736328 C2.28885875 36.08044549 9.92561935 40.13995712 14.86328125 47.96875 C17.51087673 54.30770457 17.88969204 61.45086642 15.73828125 67.96875 C11.80005459 77.18203255 6.09796112 82.12833594 -3.13671875 85.96875 C-14.57967769 89.67036036 -28.44408307 89.27524813 -39.38671875 84.15625 C-46.49418829 80.23784627 -51.04216477 75.4770503 -54.13671875 67.96875 C-54.52251994 65.97820521 -54.86779823 63.97842482 -55.13671875 61.96875 C-52.24340655 61.26870665 -49.34788874 60.5834258 -46.44921875 59.90625 C-45.63259766 59.70708984 -44.81597656 59.50792969 -43.97460938 59.30273438 C-36.04830578 57.47358739 -36.04830578 57.47358739 -32.13671875 58.96875 C-30.44921875 61.40625 -30.44921875 61.40625 -29.13671875 63.96875 C-25.9450381 67.16043065 -22.58212226 67.13771018 -18.19921875 67.21875 C-15.07166297 67.16793299 -13.00699362 66.92464346 -10.01171875 65.90625 C-7.74573834 63.97328884 -7.74573834 63.97328884 -7.82421875 60.28125 C-7.97890625 58.6415625 -7.97890625 58.6415625 -8.13671875 56.96875 C-13.24043245 54.08331709 -18.2323553 52.86468974 -23.88671875 51.59375 C-34.41581773 49.07049875 -44.02029652 46.59757312 -50.13671875 36.96875 C-53.8750756 30.52967907 -54.09185649 23.22779681 -53.13671875 15.96875 C-51.95993677 12.79928385 -50.34246333 10.51039477 -48.13671875 7.96875 C-47.62882812 7.34226562 -47.1209375 6.71578125 -46.59765625 6.0703125 C-42.19290515 1.12279586 -37.36033917 -1.00748532 -31.13671875 -3.03125 C-21.32496572 -6.30183434 -9.11040974 -4.39698021 0 0 Z " fill="#2F3C44" transform="translate(1139.13671875,51.03125)"/>
<path d="M0 0 C7.59 0 15.18 0 23 0 C23 8.25 23 16.5 23 25 C29.93 25 36.86 25 44 25 C44 31.93 44 38.86 44 46 C37.07 46 30.14 46 23 46 C23.05108235 51.60628748 23.11405651 57.20981316 23.20751953 62.81518555 C23.2357061 64.72101905 23.25693216 66.62696895 23.27099609 68.53295898 C23.29245783 71.27648406 23.33912365 74.01861313 23.390625 76.76171875 C23.39185364 77.61086349 23.39308228 78.46000824 23.39434814 79.33488464 C23.4945553 83.40266559 23.69869801 85.51758414 25.90161133 89.04467773 C27.80893616 91.1436972 27.80893616 91.1436972 30.18359375 91.5234375 C30.92738281 91.47445312 31.67117188 91.42546875 32.4375 91.375 C33.17871094 91.34148437 33.91992188 91.30796875 34.68359375 91.2734375 C37.15879817 90.98125485 39.56413311 90.52411951 42 90 C42.67449966 92.39387157 43.33976641 94.78969221 44 97.1875 C44.19078125 97.86103516 44.3815625 98.53457031 44.578125 99.22851562 C45.57460569 102.87634672 46.44006444 106.21404878 46 110 C40.64983226 114.65982351 32.18925176 115.45758978 25.3203125 115.2421875 C16.91391979 114.36475257 10.41353296 111.5925238 5 105 C-1.81124007 93.62603583 -0.57215598 80.94395717 -0.3125 68.1875 C-0.28737293 66.03062496 -0.2645676 63.87372155 -0.24414062 61.71679688 C-0.1895254 56.47715386 -0.10349773 51.23889608 0 46 C-4.95 46 -9.9 46 -15 46 C-15 39.07 -15 32.14 -15 25 C-10.05 25 -5.1 25 0 25 C0 16.75 0 8.5 0 0 Z " fill="#2D3B43" transform="translate(994,24)"/>
<path d="M0 0 C7.92 0 15.84 0 24 0 C24 29.04 24 58.08 24 88 C16.08 88 8.16 88 0 88 C0 58.96 0 29.92 0 0 Z " fill="#334149" transform="translate(1050,49)"/>
<path d="M0 0 C9.56133719 10.62370799 9.72573591 20.71815857 9.59375 34.2890625 C9.5920361 36.16132531 9.59210741 38.03359051 9.59387207 39.90585327 C9.5922253 43.81442473 9.57364303 47.72241815 9.54199219 51.63085938 C9.50226173 56.62518112 9.49795752 61.61874936 9.50545502 66.61319923 C9.50853281 70.4738345 9.49637633 74.33430233 9.47932434 78.1948967 C9.47232559 80.03597335 9.46916599 81.87706896 9.47001648 83.71815872 C9.46820672 86.29503583 9.44672705 88.87103064 9.41992188 91.44775391 C9.42285248 92.19809402 9.42578308 92.94843414 9.42880249 93.72151184 C9.31249374 101.01526786 7.03209382 106.9987999 2.8125 113 C2.28269531 113.763125 1.75289062 114.52625 1.20703125 115.3125 C0.80871094 115.869375 0.41039062 116.42625 0 117 C-5.4601763 112.31984889 -8.06292055 105.79132333 -10 99 C-10.19295284 96.28183771 -10.29390231 93.66647692 -10.29052734 90.95019531 C-10.29724457 90.16558929 -10.30396179 89.38098328 -10.31088257 88.57260132 C-10.32980501 85.9910439 -10.3337841 83.40974736 -10.3359375 80.828125 C-10.34237038 79.02219539 -10.34909911 77.21626681 -10.35610962 75.41033936 C-10.3680687 71.62770168 -10.37179195 67.84515523 -10.37060547 64.0625 C-10.37040258 59.23637578 -10.39767971 54.4108424 -10.43214989 49.58485794 C-10.45448709 45.85456707 -10.4584409 42.12441673 -10.45738602 38.39406586 C-10.45973268 36.61601479 -10.46850301 34.8379593 -10.48405075 33.05997467 C-10.5903115 19.65104654 -9.64901881 10.08761058 0 0 Z " fill="#C3814A" transform="translate(253,21)"/>
<path d="M0 0 C5.94402357 4.32292623 9.28745728 8.80399613 10.5365448 16.15959167 C11.00308135 20.02553351 11.16161314 23.81763309 11.17700195 27.7043457 C11.18357315 28.4403299 11.19014435 29.17631409 11.19691467 29.93460083 C11.21647928 32.34832898 11.22827084 34.7619955 11.23828125 37.17578125 C11.24235678 38.00638754 11.2464323 38.83699383 11.25063133 39.69277 C11.27141797 44.08741373 11.28575283 48.48202689 11.29516602 52.87670898 C11.30622958 57.39226541 11.34065007 61.90732901 11.38033772 66.42271137 C11.40659098 69.91707723 11.41486541 73.41132692 11.41844749 76.9057827 C11.42328903 78.56941249 11.43483278 80.23303794 11.45348549 81.89657021 C11.56978418 92.95339845 11.04259394 102.67499834 3.75 111.625 C3.22921875 112.27726562 2.7084375 112.92953125 2.171875 113.6015625 C1.59179688 114.29378906 1.59179688 114.29378906 1 115 C-5.9668406 106.54026498 -8.14417804 100.96430112 -8.16113281 90.04199219 C-8.16858017 88.87971352 -8.16858017 88.87971352 -8.17617798 87.69395447 C-8.19071462 85.14491875 -8.19758759 82.59594527 -8.203125 80.046875 C-8.20595238 79.17122139 -8.20877975 78.29556778 -8.21169281 77.39337921 C-8.22665163 72.7588318 -8.23590178 68.12431525 -8.24023438 63.48974609 C-8.24571205 58.72427409 -8.2697347 53.95908879 -8.29820633 49.19370651 C-8.31691357 45.50975747 -8.32204261 41.82587636 -8.32357025 38.14188385 C-8.32657941 36.38616622 -8.33454857 34.63044928 -8.34775543 32.87477875 C-8.43524376 20.34991093 -8.12052621 10.09578935 0 0 Z " fill="#F7883B" transform="translate(134,22)"/>
<path d="M0 0 C6.32006677 2.82412432 10.88007122 8.07848542 14.046875 14.13671875 C15.63773043 23.32832789 15.2069479 30.03212686 10.25390625 38.10546875 C8.29706445 40.81994763 6.48551716 42.66103345 3.609375 44.38671875 C2.76375 44.96421875 1.918125 45.54171875 1.046875 46.13671875 C-4.71817657 48.23310114 -10.8697847 48.60140865 -16.734375 46.578125 C-22.5183327 43.36357928 -26.84734261 37.80827013 -29.02734375 31.5625 C-30.17241236 24.70440092 -30.98907572 16.00582406 -27.328125 9.82421875 C-20.10220377 0.36858468 -11.88575216 -3.04912269 0 0 Z " fill="#F9F9FA" transform="translate(593.390625,69.61328125)"/>
<path d="M0 0 C4.1725037 1.60480912 7.162031 3.53137122 10 7 C11.58074888 10.68841405 11.64569677 15.06711966 11 19 C9.15360224 23.01113996 6.76864978 25.48199689 3.125 27.9375 C-1.47871234 29.50276219 -5.10229318 29.81330292 -9.625 27.875 C-16.59291776 22.37401229 -16.59291776 22.37401229 -17.41796875 17.5625 C-17.57255893 12.61561432 -17.32410168 8.87811863 -14 5 C-9.51539183 0.3068054 -6.27516796 -1.15463091 0 0 Z " fill="#313E46" transform="translate(1066,9)"/>
<path d="M0 0 C3.9676091 3.86841887 4.02719308 5.16315847 5 11 C-7.21 11 -19.42 11 -32 11 C-30.84395756 4.06374533 -29.49505649 1.87129236 -24 -2.25 C-15.43884722 -7.24400579 -7.76221654 -5.56190319 0 0 Z " fill="#F2F3F3" transform="translate(850,72)"/>
<path d="M0 0 C0.66 0.33 1.32 0.66 2 1 C1.3503125 1.59748047 1.3503125 1.59748047 0.6875 2.20703125 C0.130625 2.73683594 -0.42625 3.26664062 -1 3.8125 C-1.556875 4.33457031 -2.11375 4.85664062 -2.6875 5.39453125 C-4.316465 7.04148967 -4.316465 7.04148967 -4 10 C-4.99 11.485 -4.99 11.485 -6 13 C-6.32722171 15.32160672 -6.32722171 15.32160672 -6.31884766 17.93041992 C-6.33871735 18.93123093 -6.35858704 19.93204193 -6.37905884 20.96318054 C-6.39061005 22.04138565 -6.40216125 23.11959076 -6.4140625 24.23046875 C-6.43342865 25.33602615 -6.4527948 26.44158356 -6.4727478 27.5806427 C-6.53258836 31.11618301 -6.5789473 34.65175579 -6.625 38.1875 C-6.66317562 40.58269659 -6.7022271 42.9778794 -6.7421875 45.37304688 C-6.83829358 51.24857564 -6.92332804 57.12418725 -7 63 C-7.33 63 -7.66 63 -8 63 C-8.07616325 55.70433246 -8.1286476 48.40876776 -8.16479492 41.11279297 C-8.17986662 38.6316342 -8.20032746 36.15050201 -8.22631836 33.66943359 C-8.26277167 30.09986811 -8.27974292 26.53065539 -8.29296875 22.9609375 C-8.30845261 21.85446869 -8.32393646 20.74799988 -8.33988953 19.60800171 C-8.34150595 12.1846049 -7.53110136 7.70768983 -2.3125 2.125 C-1.1678125 1.073125 -1.1678125 1.073125 0 0 Z " fill="#F4F5F6" transform="translate(921,71)"/>
<path d="M0 0 C0.66 0.33 1.32 0.66 2 1 C1.3503125 1.59748047 1.3503125 1.59748047 0.6875 2.20703125 C0.130625 2.73683594 -0.42625 3.26664062 -1 3.8125 C-1.556875 4.33457031 -2.11375 4.85664062 -2.6875 5.39453125 C-4.316465 7.04148967 -4.316465 7.04148967 -4 10 C-4.99 11.485 -4.99 11.485 -6 13 C-6.39013716 14.9896995 -6.73202649 16.99019869 -7 19 C-7.33 19 -7.66 19 -8 19 C-8.2910618 13.37280524 -8.144094 9.87876655 -5 5 C-2.3125 2.125 -2.3125 2.125 0 0 Z " fill="#DBDEDF" transform="translate(921,71)"/>
<path d="M0 0 C0.66 0.66 1.32 1.32 2 2 C-0.97 4.475 -0.97 4.475 -4 7 C-4 4 -4 4 -2 1.8125 C-1.34 1.214375 -0.68 0.61625 0 0 Z " fill="#36444C" transform="translate(1055,11)"/>
</svg>
